<mxfile host="app.diagrams.net" modified="2023-05-25T05:10:03.646Z" agent="Mozilla/5.0 (Macintosh; Intel Mac OS X 10_15_7) AppleWebKit/537.36 (KHTML, like Gecko) Chrome/113.0.0.0 Safari/537.36" etag="g95OeFAG4483nUKgsugx" version="21.3.3" type="github" pages="2">
  <diagram id="KMHZrfO2wLEGB999-3ix" name="upate-设计稿">
    <mxGraphModel dx="2168" dy="1072" grid="1" gridSize="10" guides="1" tooltips="1" connect="1" arrows="1" fold="1" page="1" pageScale="1" pageWidth="850" pageHeight="1100" math="0" shadow="0">
      <root>
        <mxCell id="0" />
        <mxCell id="1" parent="0" />
        <mxCell id="RLvVYlyMcEg82NRf-uoO-1" style="edgeStyle=orthogonalEdgeStyle;rounded=0;orthogonalLoop=1;jettySize=auto;html=1;fontSize=18;" parent="1" source="RLvVYlyMcEg82NRf-uoO-2" target="RLvVYlyMcEg82NRf-uoO-10" edge="1">
          <mxGeometry relative="1" as="geometry" />
        </mxCell>
        <mxCell id="RLvVYlyMcEg82NRf-uoO-2" value="Pipeline" style="shape=process;whiteSpace=wrap;html=1;backgroundOutline=1;fontSize=18;" parent="1" vertex="1">
          <mxGeometry x="420" y="145" width="240" height="80" as="geometry" />
        </mxCell>
        <mxCell id="RLvVYlyMcEg82NRf-uoO-3" style="edgeStyle=orthogonalEdgeStyle;rounded=0;orthogonalLoop=1;jettySize=auto;html=1;fontSize=18;" parent="1" source="RLvVYlyMcEg82NRf-uoO-4" target="RLvVYlyMcEg82NRf-uoO-2" edge="1">
          <mxGeometry relative="1" as="geometry">
            <Array as="points">
              <mxPoint x="520" y="90" />
            </Array>
          </mxGeometry>
        </mxCell>
        <mxCell id="RLvVYlyMcEg82NRf-uoO-4" value="Pipeline&lt;br&gt;RealTimeExecutor" style="rounded=1;whiteSpace=wrap;html=1;fontSize=18;" parent="1" vertex="1">
          <mxGeometry x="250" y="60" width="160" height="60" as="geometry" />
        </mxCell>
        <mxCell id="RLvVYlyMcEg82NRf-uoO-5" style="edgeStyle=orthogonalEdgeStyle;rounded=0;orthogonalLoop=1;jettySize=auto;html=1;entryX=0.41;entryY=1.013;entryDx=0;entryDy=0;fontSize=18;entryPerimeter=0;" parent="1" source="RLvVYlyMcEg82NRf-uoO-6" target="RLvVYlyMcEg82NRf-uoO-2" edge="1">
          <mxGeometry relative="1" as="geometry" />
        </mxCell>
        <mxCell id="RLvVYlyMcEg82NRf-uoO-6" value="Pipeline&lt;br&gt;BackgroundTask&lt;br&gt;Executor" style="rounded=1;whiteSpace=wrap;html=1;fontSize=18;" parent="1" vertex="1">
          <mxGeometry x="250" y="250" width="160" height="60" as="geometry" />
        </mxCell>
        <mxCell id="RLvVYlyMcEg82NRf-uoO-7" style="edgeStyle=orthogonalEdgeStyle;rounded=0;orthogonalLoop=1;jettySize=auto;html=1;entryX=0;entryY=0.5;entryDx=0;entryDy=0;fontSize=18;" parent="1" source="RLvVYlyMcEg82NRf-uoO-9" target="RLvVYlyMcEg82NRf-uoO-4" edge="1">
          <mxGeometry relative="1" as="geometry" />
        </mxCell>
        <mxCell id="RLvVYlyMcEg82NRf-uoO-8" style="edgeStyle=orthogonalEdgeStyle;rounded=0;orthogonalLoop=1;jettySize=auto;html=1;entryX=0;entryY=0.5;entryDx=0;entryDy=0;fontSize=18;" parent="1" source="RLvVYlyMcEg82NRf-uoO-9" target="RLvVYlyMcEg82NRf-uoO-6" edge="1">
          <mxGeometry relative="1" as="geometry" />
        </mxCell>
        <mxCell id="RLvVYlyMcEg82NRf-uoO-9" value="Context&lt;br&gt;(Serializable)" style="rounded=0;whiteSpace=wrap;html=1;fontSize=18;" parent="1" vertex="1">
          <mxGeometry x="82.5" y="155" width="120" height="60" as="geometry" />
        </mxCell>
        <mxCell id="RLvVYlyMcEg82NRf-uoO-10" value="Result" style="ellipse;whiteSpace=wrap;html=1;aspect=fixed;fontSize=18;" parent="1" vertex="1">
          <mxGeometry x="710" y="145" width="80" height="80" as="geometry" />
        </mxCell>
        <mxCell id="RLvVYlyMcEg82NRf-uoO-11" value="" style="group" parent="1" vertex="1" connectable="0">
          <mxGeometry x="160" y="1160" width="415" height="160" as="geometry" />
        </mxCell>
        <mxCell id="RLvVYlyMcEg82NRf-uoO-12" value="DataLoader" style="rounded=1;whiteSpace=wrap;html=1;fontSize=18;fillColor=none;" parent="RLvVYlyMcEg82NRf-uoO-11" vertex="1">
          <mxGeometry x="170" y="50" width="120" height="60" as="geometry" />
        </mxCell>
        <mxCell id="RLvVYlyMcEg82NRf-uoO-13" style="edgeStyle=orthogonalEdgeStyle;rounded=0;orthogonalLoop=1;jettySize=auto;html=1;entryX=0;entryY=0.5;entryDx=0;entryDy=0;fontSize=18;" parent="RLvVYlyMcEg82NRf-uoO-11" source="RLvVYlyMcEg82NRf-uoO-14" target="RLvVYlyMcEg82NRf-uoO-12" edge="1">
          <mxGeometry relative="1" as="geometry" />
        </mxCell>
        <mxCell id="RLvVYlyMcEg82NRf-uoO-14" value="Context" style="text;html=1;strokeColor=none;fillColor=none;align=center;verticalAlign=middle;whiteSpace=wrap;rounded=0;fontSize=18;" parent="RLvVYlyMcEg82NRf-uoO-11" vertex="1">
          <mxGeometry x="50" width="60" height="30" as="geometry" />
        </mxCell>
        <mxCell id="RLvVYlyMcEg82NRf-uoO-15" style="edgeStyle=orthogonalEdgeStyle;rounded=0;orthogonalLoop=1;jettySize=auto;html=1;entryX=0;entryY=0.5;entryDx=0;entryDy=0;fontSize=18;" parent="RLvVYlyMcEg82NRf-uoO-11" source="RLvVYlyMcEg82NRf-uoO-16" target="RLvVYlyMcEg82NRf-uoO-12" edge="1">
          <mxGeometry relative="1" as="geometry" />
        </mxCell>
        <mxCell id="RLvVYlyMcEg82NRf-uoO-16" value="DataSet" style="text;html=1;strokeColor=default;fillColor=none;align=center;verticalAlign=middle;whiteSpace=wrap;rounded=0;fontSize=18;dashed=1;" parent="RLvVYlyMcEg82NRf-uoO-11" vertex="1">
          <mxGeometry x="20" y="130" width="90" height="30" as="geometry" />
        </mxCell>
        <mxCell id="RLvVYlyMcEg82NRf-uoO-17" value="DataSet" style="text;html=1;strokeColor=#82b366;fillColor=#d5e8d4;align=center;verticalAlign=middle;whiteSpace=wrap;rounded=0;fontSize=18;" parent="RLvVYlyMcEg82NRf-uoO-11" vertex="1">
          <mxGeometry x="325" y="62.5" width="90" height="35" as="geometry" />
        </mxCell>
        <mxCell id="RLvVYlyMcEg82NRf-uoO-18" style="rounded=0;orthogonalLoop=1;jettySize=auto;html=1;fontSize=18;" parent="RLvVYlyMcEg82NRf-uoO-11" source="RLvVYlyMcEg82NRf-uoO-12" target="RLvVYlyMcEg82NRf-uoO-17" edge="1">
          <mxGeometry relative="1" as="geometry" />
        </mxCell>
        <mxCell id="RLvVYlyMcEg82NRf-uoO-19" style="edgeStyle=orthogonalEdgeStyle;rounded=0;orthogonalLoop=1;jettySize=auto;html=1;entryX=0;entryY=0.5;entryDx=0;entryDy=0;fontSize=18;" parent="RLvVYlyMcEg82NRf-uoO-11" source="RLvVYlyMcEg82NRf-uoO-20" target="RLvVYlyMcEg82NRf-uoO-12" edge="1">
          <mxGeometry relative="1" as="geometry" />
        </mxCell>
        <mxCell id="RLvVYlyMcEg82NRf-uoO-20" value="Connection" style="text;html=1;strokeColor=default;fillColor=none;align=center;verticalAlign=middle;whiteSpace=wrap;rounded=0;fontSize=18;dashed=1;" parent="RLvVYlyMcEg82NRf-uoO-11" vertex="1">
          <mxGeometry y="65" width="110" height="30" as="geometry" />
        </mxCell>
        <mxCell id="RLvVYlyMcEg82NRf-uoO-21" value="" style="group" parent="1" vertex="1" connectable="0">
          <mxGeometry x="152.5" y="1360" width="470" height="120" as="geometry" />
        </mxCell>
        <mxCell id="RLvVYlyMcEg82NRf-uoO-22" value="DataTransformer" style="rounded=1;whiteSpace=wrap;html=1;fontSize=18;fillColor=none;" parent="RLvVYlyMcEg82NRf-uoO-21" vertex="1">
          <mxGeometry x="170" y="30" width="170" height="60" as="geometry" />
        </mxCell>
        <mxCell id="RLvVYlyMcEg82NRf-uoO-23" style="edgeStyle=orthogonalEdgeStyle;rounded=0;orthogonalLoop=1;jettySize=auto;html=1;entryX=0;entryY=0.5;entryDx=0;entryDy=0;fontSize=18;" parent="RLvVYlyMcEg82NRf-uoO-21" source="RLvVYlyMcEg82NRf-uoO-24" target="RLvVYlyMcEg82NRf-uoO-22" edge="1">
          <mxGeometry relative="1" as="geometry">
            <Array as="points">
              <mxPoint x="140" y="15" />
              <mxPoint x="140" y="60" />
            </Array>
          </mxGeometry>
        </mxCell>
        <mxCell id="RLvVYlyMcEg82NRf-uoO-24" value="Context" style="text;html=1;strokeColor=none;fillColor=none;align=center;verticalAlign=middle;whiteSpace=wrap;rounded=0;fontSize=18;" parent="RLvVYlyMcEg82NRf-uoO-21" vertex="1">
          <mxGeometry x="40" width="60" height="30" as="geometry" />
        </mxCell>
        <mxCell id="RLvVYlyMcEg82NRf-uoO-25" style="edgeStyle=orthogonalEdgeStyle;rounded=0;orthogonalLoop=1;jettySize=auto;html=1;entryX=0;entryY=0.5;entryDx=0;entryDy=0;fontSize=18;" parent="RLvVYlyMcEg82NRf-uoO-21" source="RLvVYlyMcEg82NRf-uoO-26" target="RLvVYlyMcEg82NRf-uoO-22" edge="1">
          <mxGeometry relative="1" as="geometry">
            <Array as="points">
              <mxPoint x="140" y="105" />
              <mxPoint x="140" y="60" />
            </Array>
          </mxGeometry>
        </mxCell>
        <mxCell id="RLvVYlyMcEg82NRf-uoO-26" value="DataSet" style="text;html=1;strokeColor=none;fillColor=none;align=center;verticalAlign=middle;whiteSpace=wrap;rounded=0;fontSize=18;dashed=1;" parent="RLvVYlyMcEg82NRf-uoO-21" vertex="1">
          <mxGeometry x="25" y="90" width="90" height="30" as="geometry" />
        </mxCell>
        <mxCell id="RLvVYlyMcEg82NRf-uoO-27" value="DataSet" style="text;html=1;strokeColor=#d6b656;fillColor=#fff2cc;align=center;verticalAlign=middle;whiteSpace=wrap;rounded=0;fontSize=18;dashed=1;" parent="RLvVYlyMcEg82NRf-uoO-21" vertex="1">
          <mxGeometry x="380" y="45" width="90" height="30" as="geometry" />
        </mxCell>
        <mxCell id="RLvVYlyMcEg82NRf-uoO-28" style="edgeStyle=orthogonalEdgeStyle;rounded=0;orthogonalLoop=1;jettySize=auto;html=1;fontSize=18;" parent="RLvVYlyMcEg82NRf-uoO-21" source="RLvVYlyMcEg82NRf-uoO-22" target="RLvVYlyMcEg82NRf-uoO-27" edge="1">
          <mxGeometry relative="1" as="geometry" />
        </mxCell>
        <mxCell id="RLvVYlyMcEg82NRf-uoO-29" style="edgeStyle=orthogonalEdgeStyle;rounded=0;orthogonalLoop=1;jettySize=auto;html=1;entryX=0;entryY=0.5;entryDx=0;entryDy=0;fontSize=18;" parent="RLvVYlyMcEg82NRf-uoO-21" source="RLvVYlyMcEg82NRf-uoO-30" target="RLvVYlyMcEg82NRf-uoO-22" edge="1">
          <mxGeometry relative="1" as="geometry" />
        </mxCell>
        <mxCell id="RLvVYlyMcEg82NRf-uoO-30" value="Connection" style="text;html=1;strokeColor=default;fillColor=none;align=center;verticalAlign=middle;whiteSpace=wrap;rounded=0;fontSize=18;dashed=1;" parent="RLvVYlyMcEg82NRf-uoO-21" vertex="1">
          <mxGeometry y="45" width="110" height="30" as="geometry" />
        </mxCell>
        <mxCell id="RLvVYlyMcEg82NRf-uoO-31" value="" style="group" parent="1" vertex="1" connectable="0">
          <mxGeometry x="82.5" y="420" width="590" height="580" as="geometry" />
        </mxCell>
        <mxCell id="RLvVYlyMcEg82NRf-uoO-32" value="" style="rounded=1;whiteSpace=wrap;html=1;fontSize=18;fillColor=none;" parent="RLvVYlyMcEg82NRf-uoO-31" vertex="1">
          <mxGeometry width="590" height="580" as="geometry" />
        </mxCell>
        <mxCell id="RLvVYlyMcEg82NRf-uoO-33" value="Connection" style="rounded=1;whiteSpace=wrap;html=1;fontSize=18;" parent="RLvVYlyMcEg82NRf-uoO-31" vertex="1">
          <mxGeometry x="90" y="160" width="170" height="60" as="geometry" />
        </mxCell>
        <mxCell id="RLvVYlyMcEg82NRf-uoO-34" value="DataSet" style="rounded=1;whiteSpace=wrap;html=1;fontSize=18;" parent="RLvVYlyMcEg82NRf-uoO-31" vertex="1">
          <mxGeometry x="90" y="360" width="170" height="60" as="geometry" />
        </mxCell>
        <mxCell id="RLvVYlyMcEg82NRf-uoO-35" value="Pipeline" style="text;html=1;strokeColor=none;fillColor=none;align=center;verticalAlign=middle;whiteSpace=wrap;rounded=0;fontSize=18;" parent="RLvVYlyMcEg82NRf-uoO-31" vertex="1">
          <mxGeometry x="50" y="490" width="60" height="30" as="geometry" />
        </mxCell>
        <mxCell id="RLvVYlyMcEg82NRf-uoO-36" value="" style="rounded=1;whiteSpace=wrap;html=1;fontSize=18;fillColor=none;movable=1;resizable=1;rotatable=1;deletable=1;editable=1;connectable=1;" parent="RLvVYlyMcEg82NRf-uoO-31" vertex="1">
          <mxGeometry x="290" y="30" width="240" height="470" as="geometry" />
        </mxCell>
        <mxCell id="RLvVYlyMcEg82NRf-uoO-37" value="DataTransformer" style="rounded=1;whiteSpace=wrap;html=1;fontSize=18;movable=1;resizable=1;rotatable=1;deletable=1;editable=1;connectable=1;" parent="RLvVYlyMcEg82NRf-uoO-31" vertex="1">
          <mxGeometry x="325" y="170" width="170" height="60" as="geometry" />
        </mxCell>
        <mxCell id="RLvVYlyMcEg82NRf-uoO-38" value="DataLoader" style="rounded=1;whiteSpace=wrap;html=1;fontSize=18;fillColor=#f8cecc;strokeColor=#b85450;movable=1;resizable=1;rotatable=1;deletable=1;editable=1;connectable=1;" parent="RLvVYlyMcEg82NRf-uoO-31" vertex="1">
          <mxGeometry x="350" y="50" width="120" height="60" as="geometry" />
        </mxCell>
        <mxCell id="RLvVYlyMcEg82NRf-uoO-39" value="DataSank" style="rounded=1;whiteSpace=wrap;html=1;fontSize=18;movable=1;resizable=1;rotatable=1;deletable=1;editable=1;connectable=1;" parent="RLvVYlyMcEg82NRf-uoO-31" vertex="1">
          <mxGeometry x="325" y="270" width="170" height="60" as="geometry" />
        </mxCell>
        <mxCell id="RLvVYlyMcEg82NRf-uoO-40" value="DataValidator" style="rounded=1;whiteSpace=wrap;html=1;fontSize=18;movable=1;resizable=1;rotatable=1;deletable=1;editable=1;connectable=1;" parent="RLvVYlyMcEg82NRf-uoO-31" vertex="1">
          <mxGeometry x="325" y="370" width="170" height="60" as="geometry" />
        </mxCell>
        <mxCell id="RLvVYlyMcEg82NRf-uoO-41" value="Component" style="text;html=1;strokeColor=none;fillColor=none;align=center;verticalAlign=middle;whiteSpace=wrap;rounded=0;fontSize=18;movable=1;resizable=1;rotatable=1;deletable=1;editable=1;connectable=1;" parent="RLvVYlyMcEg82NRf-uoO-31" vertex="1">
          <mxGeometry x="380" y="460" width="60" height="30" as="geometry" />
        </mxCell>
        <mxCell id="RLvVYlyMcEg82NRf-uoO-42" value="" style="group" parent="1" vertex="1" connectable="0">
          <mxGeometry x="150" y="1550" width="470" height="120" as="geometry" />
        </mxCell>
        <mxCell id="RLvVYlyMcEg82NRf-uoO-43" value="DataSank" style="rounded=1;whiteSpace=wrap;html=1;fontSize=18;fillColor=none;" parent="RLvVYlyMcEg82NRf-uoO-42" vertex="1">
          <mxGeometry x="170" y="30" width="170" height="60" as="geometry" />
        </mxCell>
        <mxCell id="RLvVYlyMcEg82NRf-uoO-44" style="edgeStyle=orthogonalEdgeStyle;rounded=0;orthogonalLoop=1;jettySize=auto;html=1;entryX=0;entryY=0.5;entryDx=0;entryDy=0;fontSize=18;" parent="RLvVYlyMcEg82NRf-uoO-42" source="RLvVYlyMcEg82NRf-uoO-45" target="RLvVYlyMcEg82NRf-uoO-43" edge="1">
          <mxGeometry relative="1" as="geometry">
            <Array as="points">
              <mxPoint x="140" y="15" />
              <mxPoint x="140" y="60" />
            </Array>
          </mxGeometry>
        </mxCell>
        <mxCell id="RLvVYlyMcEg82NRf-uoO-45" value="Context" style="text;html=1;strokeColor=none;fillColor=none;align=center;verticalAlign=middle;whiteSpace=wrap;rounded=0;fontSize=18;" parent="RLvVYlyMcEg82NRf-uoO-42" vertex="1">
          <mxGeometry x="40" width="60" height="30" as="geometry" />
        </mxCell>
        <mxCell id="RLvVYlyMcEg82NRf-uoO-46" style="edgeStyle=orthogonalEdgeStyle;rounded=0;orthogonalLoop=1;jettySize=auto;html=1;entryX=0;entryY=0.5;entryDx=0;entryDy=0;fontSize=18;" parent="RLvVYlyMcEg82NRf-uoO-42" source="RLvVYlyMcEg82NRf-uoO-47" target="RLvVYlyMcEg82NRf-uoO-43" edge="1">
          <mxGeometry relative="1" as="geometry">
            <Array as="points">
              <mxPoint x="140" y="105" />
              <mxPoint x="140" y="60" />
            </Array>
          </mxGeometry>
        </mxCell>
        <mxCell id="RLvVYlyMcEg82NRf-uoO-47" value="DataSet" style="text;html=1;strokeColor=none;fillColor=none;align=center;verticalAlign=middle;whiteSpace=wrap;rounded=0;fontSize=18;dashed=1;" parent="RLvVYlyMcEg82NRf-uoO-42" vertex="1">
          <mxGeometry x="25" y="90" width="90" height="30" as="geometry" />
        </mxCell>
        <mxCell id="RLvVYlyMcEg82NRf-uoO-48" value="Result" style="text;html=1;strokeColor=#9673a6;fillColor=#e1d5e7;align=center;verticalAlign=middle;whiteSpace=wrap;rounded=0;fontSize=18;dashed=1;" parent="RLvVYlyMcEg82NRf-uoO-42" vertex="1">
          <mxGeometry x="380" y="45" width="90" height="30" as="geometry" />
        </mxCell>
        <mxCell id="RLvVYlyMcEg82NRf-uoO-49" style="edgeStyle=orthogonalEdgeStyle;rounded=0;orthogonalLoop=1;jettySize=auto;html=1;fontSize=18;" parent="RLvVYlyMcEg82NRf-uoO-42" source="RLvVYlyMcEg82NRf-uoO-43" target="RLvVYlyMcEg82NRf-uoO-48" edge="1">
          <mxGeometry relative="1" as="geometry" />
        </mxCell>
        <mxCell id="RLvVYlyMcEg82NRf-uoO-50" style="edgeStyle=orthogonalEdgeStyle;rounded=0;orthogonalLoop=1;jettySize=auto;html=1;entryX=0;entryY=0.5;entryDx=0;entryDy=0;fontSize=18;" parent="RLvVYlyMcEg82NRf-uoO-42" source="RLvVYlyMcEg82NRf-uoO-51" target="RLvVYlyMcEg82NRf-uoO-43" edge="1">
          <mxGeometry relative="1" as="geometry" />
        </mxCell>
        <mxCell id="RLvVYlyMcEg82NRf-uoO-51" value="Connection" style="text;html=1;strokeColor=none;fillColor=none;align=center;verticalAlign=middle;whiteSpace=wrap;rounded=0;fontSize=18;dashed=1;" parent="RLvVYlyMcEg82NRf-uoO-42" vertex="1">
          <mxGeometry y="45" width="110" height="30" as="geometry" />
        </mxCell>
        <mxCell id="RLvVYlyMcEg82NRf-uoO-52" value="" style="group" parent="1" vertex="1" connectable="0">
          <mxGeometry x="150" y="1720" width="470" height="120" as="geometry" />
        </mxCell>
        <mxCell id="RLvVYlyMcEg82NRf-uoO-53" value="DataValidator" style="rounded=1;whiteSpace=wrap;html=1;fontSize=18;fillColor=none;" parent="RLvVYlyMcEg82NRf-uoO-52" vertex="1">
          <mxGeometry x="170" y="30" width="170" height="60" as="geometry" />
        </mxCell>
        <mxCell id="RLvVYlyMcEg82NRf-uoO-54" style="edgeStyle=orthogonalEdgeStyle;rounded=0;orthogonalLoop=1;jettySize=auto;html=1;entryX=0;entryY=0.5;entryDx=0;entryDy=0;fontSize=18;" parent="RLvVYlyMcEg82NRf-uoO-52" source="RLvVYlyMcEg82NRf-uoO-55" target="RLvVYlyMcEg82NRf-uoO-53" edge="1">
          <mxGeometry relative="1" as="geometry">
            <Array as="points">
              <mxPoint x="140" y="15" />
              <mxPoint x="140" y="60" />
            </Array>
          </mxGeometry>
        </mxCell>
        <mxCell id="RLvVYlyMcEg82NRf-uoO-55" value="Context" style="text;html=1;strokeColor=none;fillColor=none;align=center;verticalAlign=middle;whiteSpace=wrap;rounded=0;fontSize=18;" parent="RLvVYlyMcEg82NRf-uoO-52" vertex="1">
          <mxGeometry x="40" width="60" height="30" as="geometry" />
        </mxCell>
        <mxCell id="RLvVYlyMcEg82NRf-uoO-56" style="edgeStyle=orthogonalEdgeStyle;rounded=0;orthogonalLoop=1;jettySize=auto;html=1;entryX=0;entryY=0.5;entryDx=0;entryDy=0;fontSize=18;" parent="RLvVYlyMcEg82NRf-uoO-52" source="RLvVYlyMcEg82NRf-uoO-57" target="RLvVYlyMcEg82NRf-uoO-53" edge="1">
          <mxGeometry relative="1" as="geometry">
            <Array as="points">
              <mxPoint x="140" y="105" />
              <mxPoint x="140" y="60" />
            </Array>
          </mxGeometry>
        </mxCell>
        <mxCell id="RLvVYlyMcEg82NRf-uoO-57" value="DataSet" style="text;html=1;strokeColor=none;fillColor=none;align=center;verticalAlign=middle;whiteSpace=wrap;rounded=0;fontSize=18;dashed=1;" parent="RLvVYlyMcEg82NRf-uoO-52" vertex="1">
          <mxGeometry x="25" y="90" width="90" height="30" as="geometry" />
        </mxCell>
        <mxCell id="RLvVYlyMcEg82NRf-uoO-58" value="Result" style="text;html=1;strokeColor=#d79b00;fillColor=#ffe6cc;align=center;verticalAlign=middle;whiteSpace=wrap;rounded=0;fontSize=18;dashed=1;" parent="RLvVYlyMcEg82NRf-uoO-52" vertex="1">
          <mxGeometry x="380" y="45" width="90" height="30" as="geometry" />
        </mxCell>
        <mxCell id="RLvVYlyMcEg82NRf-uoO-59" style="edgeStyle=orthogonalEdgeStyle;rounded=0;orthogonalLoop=1;jettySize=auto;html=1;fontSize=18;" parent="RLvVYlyMcEg82NRf-uoO-52" source="RLvVYlyMcEg82NRf-uoO-53" target="RLvVYlyMcEg82NRf-uoO-58" edge="1">
          <mxGeometry relative="1" as="geometry" />
        </mxCell>
        <mxCell id="RLvVYlyMcEg82NRf-uoO-60" style="edgeStyle=orthogonalEdgeStyle;rounded=0;orthogonalLoop=1;jettySize=auto;html=1;entryX=0;entryY=0.5;entryDx=0;entryDy=0;fontSize=18;" parent="RLvVYlyMcEg82NRf-uoO-52" source="RLvVYlyMcEg82NRf-uoO-61" target="RLvVYlyMcEg82NRf-uoO-53" edge="1">
          <mxGeometry relative="1" as="geometry" />
        </mxCell>
        <mxCell id="RLvVYlyMcEg82NRf-uoO-61" value="Connection" style="text;html=1;strokeColor=none;fillColor=none;align=center;verticalAlign=middle;whiteSpace=wrap;rounded=0;fontSize=18;dashed=1;" parent="RLvVYlyMcEg82NRf-uoO-52" vertex="1">
          <mxGeometry y="45" width="110" height="30" as="geometry" />
        </mxCell>
        <mxCell id="RLvVYlyMcEg82NRf-uoO-62" style="edgeStyle=orthogonalEdgeStyle;rounded=0;orthogonalLoop=1;jettySize=auto;html=1;entryX=0.5;entryY=0;entryDx=0;entryDy=0;labelBackgroundColor=#808080;fontSize=15;fillColor=#CCCCCC;" parent="1" source="RLvVYlyMcEg82NRf-uoO-63" target="RLvVYlyMcEg82NRf-uoO-98" edge="1">
          <mxGeometry relative="1" as="geometry" />
        </mxCell>
        <mxCell id="RLvVYlyMcEg82NRf-uoO-63" value="User" style="shape=umlActor;verticalLabelPosition=bottom;verticalAlign=top;html=1;outlineConnect=0;strokeColor=default;fontSize=18;fillColor=none;" parent="1" vertex="1">
          <mxGeometry x="107.5" y="2080" width="30" height="60" as="geometry" />
        </mxCell>
        <mxCell id="RLvVYlyMcEg82NRf-uoO-64" value="我想要更新补集数据(InputCollectedDetail)" style="shape=callout;whiteSpace=wrap;html=1;perimeter=calloutPerimeter;strokeColor=default;fontSize=15;fillColor=none;" parent="1" vertex="1">
          <mxGeometry x="72.5" y="1940" width="195" height="130" as="geometry" />
        </mxCell>
        <mxCell id="RLvVYlyMcEg82NRf-uoO-65" value="数据文件(.xlsx)" style="shape=note;whiteSpace=wrap;html=1;backgroundOutline=1;darkOpacity=0.05;strokeColor=default;fontSize=15;fillColor=none;" parent="1" vertex="1">
          <mxGeometry x="480" y="1955" width="80" height="100" as="geometry" />
        </mxCell>
        <mxCell id="RLvVYlyMcEg82NRf-uoO-66" value="补集数据" style="shape=table;startSize=30;container=1;collapsible=0;childLayout=tableLayout;fontStyle=1;align=center;strokeColor=default;fontSize=15;fillColor=none;" parent="1" vertex="1">
          <mxGeometry x="760" y="1930" width="320" height="180" as="geometry" />
        </mxCell>
        <mxCell id="RLvVYlyMcEg82NRf-uoO-67" value="" style="shape=tableRow;horizontal=0;startSize=0;swimlaneHead=0;swimlaneBody=0;top=0;left=0;bottom=0;right=0;collapsible=0;dropTarget=0;fillColor=none;points=[[0,0.5],[1,0.5]];portConstraint=eastwest;strokeColor=default;fontSize=15;" parent="RLvVYlyMcEg82NRf-uoO-66" vertex="1">
          <mxGeometry y="30" width="320" height="24" as="geometry" />
        </mxCell>
        <mxCell id="RLvVYlyMcEg82NRf-uoO-68" value="&lt;b&gt;data_source&lt;/b&gt;" style="shape=partialRectangle;html=1;whiteSpace=wrap;connectable=0;fillColor=none;top=0;left=0;bottom=0;right=0;overflow=hidden;strokeColor=default;fontSize=15;" parent="RLvVYlyMcEg82NRf-uoO-67" vertex="1">
          <mxGeometry width="107" height="24" as="geometry">
            <mxRectangle width="107" height="24" as="alternateBounds" />
          </mxGeometry>
        </mxCell>
        <mxCell id="RLvVYlyMcEg82NRf-uoO-69" value="&lt;b&gt;raw_text&lt;/b&gt;" style="shape=partialRectangle;html=1;whiteSpace=wrap;connectable=0;fillColor=none;top=0;left=0;bottom=0;right=0;overflow=hidden;strokeColor=default;fontSize=15;" parent="RLvVYlyMcEg82NRf-uoO-67" vertex="1">
          <mxGeometry x="107" width="106" height="24" as="geometry">
            <mxRectangle width="106" height="24" as="alternateBounds" />
          </mxGeometry>
        </mxCell>
        <mxCell id="RLvVYlyMcEg82NRf-uoO-70" value="&lt;b&gt;meta&lt;/b&gt;" style="shape=partialRectangle;html=1;whiteSpace=wrap;connectable=0;fillColor=none;top=0;left=0;bottom=0;right=0;overflow=hidden;strokeColor=default;fontSize=15;" parent="RLvVYlyMcEg82NRf-uoO-67" vertex="1">
          <mxGeometry x="213" width="107" height="24" as="geometry">
            <mxRectangle width="107" height="24" as="alternateBounds" />
          </mxGeometry>
        </mxCell>
        <mxCell id="RLvVYlyMcEg82NRf-uoO-71" value="" style="shape=tableRow;horizontal=0;startSize=0;swimlaneHead=0;swimlaneBody=0;top=0;left=0;bottom=0;right=0;collapsible=0;dropTarget=0;fillColor=none;points=[[0,0.5],[1,0.5]];portConstraint=eastwest;strokeColor=default;fontSize=15;" parent="RLvVYlyMcEg82NRf-uoO-66" vertex="1">
          <mxGeometry y="54" width="320" height="62" as="geometry" />
        </mxCell>
        <mxCell id="RLvVYlyMcEg82NRf-uoO-72" value="" style="shape=partialRectangle;html=1;whiteSpace=wrap;connectable=0;fillColor=none;top=0;left=0;bottom=0;right=0;overflow=hidden;strokeColor=default;fontSize=15;" parent="RLvVYlyMcEg82NRf-uoO-71" vertex="1">
          <mxGeometry width="107" height="62" as="geometry">
            <mxRectangle width="107" height="62" as="alternateBounds" />
          </mxGeometry>
        </mxCell>
        <mxCell id="RLvVYlyMcEg82NRf-uoO-73" value="" style="shape=partialRectangle;html=1;whiteSpace=wrap;connectable=0;fillColor=none;top=0;left=0;bottom=0;right=0;overflow=hidden;strokeColor=default;fontSize=15;" parent="RLvVYlyMcEg82NRf-uoO-71" vertex="1">
          <mxGeometry x="107" width="106" height="62" as="geometry">
            <mxRectangle width="106" height="62" as="alternateBounds" />
          </mxGeometry>
        </mxCell>
        <mxCell id="RLvVYlyMcEg82NRf-uoO-74" value="" style="shape=partialRectangle;html=1;whiteSpace=wrap;connectable=0;fillColor=none;top=0;left=0;bottom=0;right=0;overflow=hidden;strokeColor=default;fontSize=15;" parent="RLvVYlyMcEg82NRf-uoO-71" vertex="1">
          <mxGeometry x="213" width="107" height="62" as="geometry">
            <mxRectangle width="107" height="62" as="alternateBounds" />
          </mxGeometry>
        </mxCell>
        <mxCell id="RLvVYlyMcEg82NRf-uoO-75" value="" style="shape=tableRow;horizontal=0;startSize=0;swimlaneHead=0;swimlaneBody=0;top=0;left=0;bottom=0;right=0;collapsible=0;dropTarget=0;fillColor=none;points=[[0,0.5],[1,0.5]];portConstraint=eastwest;strokeColor=default;fontSize=15;" parent="RLvVYlyMcEg82NRf-uoO-66" vertex="1">
          <mxGeometry y="116" width="320" height="64" as="geometry" />
        </mxCell>
        <mxCell id="RLvVYlyMcEg82NRf-uoO-76" value="" style="shape=partialRectangle;html=1;whiteSpace=wrap;connectable=0;fillColor=none;top=0;left=0;bottom=0;right=0;overflow=hidden;strokeColor=default;fontSize=15;" parent="RLvVYlyMcEg82NRf-uoO-75" vertex="1">
          <mxGeometry width="107" height="64" as="geometry">
            <mxRectangle width="107" height="64" as="alternateBounds" />
          </mxGeometry>
        </mxCell>
        <mxCell id="RLvVYlyMcEg82NRf-uoO-77" value="" style="shape=partialRectangle;html=1;whiteSpace=wrap;connectable=0;fillColor=none;top=0;left=0;bottom=0;right=0;overflow=hidden;strokeColor=default;fontSize=15;" parent="RLvVYlyMcEg82NRf-uoO-75" vertex="1">
          <mxGeometry x="107" width="106" height="64" as="geometry">
            <mxRectangle width="106" height="64" as="alternateBounds" />
          </mxGeometry>
        </mxCell>
        <mxCell id="RLvVYlyMcEg82NRf-uoO-78" value="" style="shape=partialRectangle;html=1;whiteSpace=wrap;connectable=0;fillColor=none;top=0;left=0;bottom=0;right=0;overflow=hidden;strokeColor=default;fontSize=15;" parent="RLvVYlyMcEg82NRf-uoO-75" vertex="1">
          <mxGeometry x="213" width="107" height="64" as="geometry">
            <mxRectangle width="107" height="64" as="alternateBounds" />
          </mxGeometry>
        </mxCell>
        <mxCell id="RLvVYlyMcEg82NRf-uoO-79" value="" style="shape=flexArrow;endArrow=classic;html=1;rounded=0;fontSize=15;" parent="1" edge="1">
          <mxGeometry width="50" height="50" relative="1" as="geometry">
            <mxPoint x="350" y="2004.5" as="sourcePoint" />
            <mxPoint x="410" y="2004.5" as="targetPoint" />
          </mxGeometry>
        </mxCell>
        <mxCell id="RLvVYlyMcEg82NRf-uoO-80" value="" style="shape=flexArrow;endArrow=classic;html=1;rounded=0;fontSize=15;" parent="1" edge="1">
          <mxGeometry width="50" height="50" relative="1" as="geometry">
            <mxPoint x="630" y="2004.5" as="sourcePoint" />
            <mxPoint x="690" y="2004.5" as="targetPoint" />
          </mxGeometry>
        </mxCell>
        <mxCell id="RLvVYlyMcEg82NRf-uoO-81" style="edgeStyle=orthogonalEdgeStyle;rounded=0;orthogonalLoop=1;jettySize=auto;html=1;labelBackgroundColor=#808080;fontSize=15;fillColor=#CCCCCC;" parent="1" source="RLvVYlyMcEg82NRf-uoO-82" target="RLvVYlyMcEg82NRf-uoO-101" edge="1">
          <mxGeometry relative="1" as="geometry" />
        </mxCell>
        <mxCell id="RLvVYlyMcEg82NRf-uoO-82" value="&lt;b&gt;Pipeline&lt;br&gt;Invoker&lt;/b&gt;" style="rounded=1;whiteSpace=wrap;html=1;strokeColor=default;fontSize=15;fillColor=none;" parent="1" vertex="1">
          <mxGeometry x="-42.5" y="2530" width="120" height="60" as="geometry" />
        </mxCell>
        <mxCell id="RLvVYlyMcEg82NRf-uoO-83" value="&lt;b&gt;pipeline_name:&amp;nbsp;&lt;/b&gt;&quot;input_collected_detail_import&quot;&lt;b&gt;&lt;br&gt;file_uri: &lt;/b&gt;&quot;file:///data/input_collected_data_2022_11_18.xlsx&quot;&lt;br&gt;&lt;div style=&quot;&quot;&gt;&lt;b style=&quot;background-color: initial;&quot;&gt;validate:&lt;/b&gt;&lt;span style=&quot;background-color: initial;&quot;&gt; true&lt;/span&gt;&lt;/div&gt;" style="text;html=1;strokeColor=none;fillColor=none;align=right;verticalAlign=middle;whiteSpace=wrap;rounded=0;fontSize=15;" parent="1" vertex="1">
          <mxGeometry x="-580" y="2540" width="400" height="30" as="geometry" />
        </mxCell>
        <mxCell id="RLvVYlyMcEg82NRf-uoO-84" value="" style="shape=flexArrow;endArrow=classic;html=1;rounded=0;fontSize=15;" parent="1" edge="1">
          <mxGeometry width="50" height="50" relative="1" as="geometry">
            <mxPoint x="-162.5" y="2559" as="sourcePoint" />
            <mxPoint x="-62.5" y="2559" as="targetPoint" />
          </mxGeometry>
        </mxCell>
        <mxCell id="RLvVYlyMcEg82NRf-uoO-85" value="Restful API" style="text;html=1;strokeColor=none;fillColor=none;align=center;verticalAlign=middle;whiteSpace=wrap;rounded=0;fontSize=15;" parent="1" vertex="1">
          <mxGeometry x="-152.5" y="2510" width="60" height="30" as="geometry" />
        </mxCell>
        <mxCell id="RLvVYlyMcEg82NRf-uoO-86" value="" style="shape=flexArrow;endArrow=classic;html=1;rounded=0;fontSize=15;" parent="1" edge="1">
          <mxGeometry width="50" height="50" relative="1" as="geometry">
            <mxPoint x="91.25" y="2559.5" as="sourcePoint" />
            <mxPoint x="191.25" y="2559.5" as="targetPoint" />
          </mxGeometry>
        </mxCell>
        <mxCell id="RLvVYlyMcEg82NRf-uoO-87" value="" style="group" parent="1" vertex="1" connectable="0">
          <mxGeometry x="221.25" y="2240" width="290" height="620" as="geometry" />
        </mxCell>
        <mxCell id="RLvVYlyMcEg82NRf-uoO-88" value="" style="rounded=1;whiteSpace=wrap;html=1;strokeColor=default;fontSize=15;fillColor=none;" parent="RLvVYlyMcEg82NRf-uoO-87" vertex="1">
          <mxGeometry width="290" height="620" as="geometry" />
        </mxCell>
        <mxCell id="RLvVYlyMcEg82NRf-uoO-89" value="LocalFileDataLoader" style="rounded=1;whiteSpace=wrap;html=1;strokeColor=default;fontSize=15;fillColor=none;" parent="RLvVYlyMcEg82NRf-uoO-87" vertex="1">
          <mxGeometry x="50" y="20" width="200" height="60" as="geometry" />
        </mxCell>
        <mxCell id="RLvVYlyMcEg82NRf-uoO-90" value="TextProcessor" style="rounded=1;whiteSpace=wrap;html=1;strokeColor=default;fontSize=15;fillColor=none;" parent="RLvVYlyMcEg82NRf-uoO-87" vertex="1">
          <mxGeometry x="50" y="150" width="200" height="60" as="geometry" />
        </mxCell>
        <mxCell id="RLvVYlyMcEg82NRf-uoO-91" value="Neo4jDataSank" style="rounded=1;whiteSpace=wrap;html=1;strokeColor=default;fontSize=15;fillColor=none;" parent="RLvVYlyMcEg82NRf-uoO-87" vertex="1">
          <mxGeometry x="50" y="410" width="200" height="60" as="geometry" />
        </mxCell>
        <mxCell id="RLvVYlyMcEg82NRf-uoO-92" value="DataValiator" style="rounded=1;whiteSpace=wrap;html=1;strokeColor=default;fontSize=15;fillColor=none;" parent="RLvVYlyMcEg82NRf-uoO-87" vertex="1">
          <mxGeometry x="50" y="540" width="200" height="60" as="geometry" />
        </mxCell>
        <mxCell id="RLvVYlyMcEg82NRf-uoO-93" value="" style="shape=flexArrow;endArrow=classic;html=1;rounded=0;fontSize=15;labelBackgroundColor=#808080;fillColor=#CCCCCC;" parent="RLvVYlyMcEg82NRf-uoO-87" edge="1">
          <mxGeometry width="50" height="50" relative="1" as="geometry">
            <mxPoint x="149.5" y="90" as="sourcePoint" />
            <mxPoint x="149.5" y="140" as="targetPoint" />
          </mxGeometry>
        </mxCell>
        <mxCell id="RLvVYlyMcEg82NRf-uoO-94" value="" style="shape=flexArrow;endArrow=classic;html=1;rounded=0;fontSize=15;labelBackgroundColor=#808080;fillColor=#CCCCCC;" parent="RLvVYlyMcEg82NRf-uoO-87" edge="1">
          <mxGeometry width="50" height="50" relative="1" as="geometry">
            <mxPoint x="149.5" y="220" as="sourcePoint" />
            <mxPoint x="149.5" y="270" as="targetPoint" />
          </mxGeometry>
        </mxCell>
        <mxCell id="RLvVYlyMcEg82NRf-uoO-95" value="TextFilterFilter" style="rounded=1;whiteSpace=wrap;html=1;strokeColor=default;fontSize=15;fillColor=none;" parent="RLvVYlyMcEg82NRf-uoO-87" vertex="1">
          <mxGeometry x="50" y="280" width="200" height="60" as="geometry" />
        </mxCell>
        <mxCell id="RLvVYlyMcEg82NRf-uoO-96" value="" style="shape=flexArrow;endArrow=classic;html=1;rounded=0;fontSize=15;labelBackgroundColor=#808080;fillColor=#CCCCCC;" parent="RLvVYlyMcEg82NRf-uoO-87" edge="1">
          <mxGeometry width="50" height="50" relative="1" as="geometry">
            <mxPoint x="149.5" y="350" as="sourcePoint" />
            <mxPoint x="149.5" y="400" as="targetPoint" />
          </mxGeometry>
        </mxCell>
        <mxCell id="RLvVYlyMcEg82NRf-uoO-97" value="" style="shape=flexArrow;endArrow=classic;html=1;rounded=0;fontSize=15;labelBackgroundColor=#808080;fillColor=#CCCCCC;" parent="RLvVYlyMcEg82NRf-uoO-87" edge="1">
          <mxGeometry width="50" height="50" relative="1" as="geometry">
            <mxPoint x="149.5" y="480" as="sourcePoint" />
            <mxPoint x="149.5" y="530" as="targetPoint" />
          </mxGeometry>
        </mxCell>
        <mxCell id="RLvVYlyMcEg82NRf-uoO-98" value="Result" style="rounded=1;whiteSpace=wrap;html=1;strokeColor=default;fontSize=15;fillColor=none;" parent="1" vertex="1">
          <mxGeometry x="640" y="2525" width="120" height="60" as="geometry" />
        </mxCell>
        <mxCell id="RLvVYlyMcEg82NRf-uoO-99" value="" style="shape=flexArrow;endArrow=classic;html=1;rounded=0;fontSize=15;" parent="1" edge="1">
          <mxGeometry width="50" height="50" relative="1" as="geometry">
            <mxPoint x="521.25" y="2554.5" as="sourcePoint" />
            <mxPoint x="621.25" y="2554.5" as="targetPoint" />
          </mxGeometry>
        </mxCell>
        <mxCell id="RLvVYlyMcEg82NRf-uoO-100" style="edgeStyle=orthogonalEdgeStyle;rounded=0;orthogonalLoop=1;jettySize=auto;html=1;labelBackgroundColor=#808080;fontSize=15;fillColor=#CCCCCC;" parent="1" source="RLvVYlyMcEg82NRf-uoO-101" edge="1">
          <mxGeometry relative="1" as="geometry">
            <mxPoint x="120" y="2170" as="targetPoint" />
          </mxGeometry>
        </mxCell>
        <mxCell id="RLvVYlyMcEg82NRf-uoO-101" value="&lt;b&gt;task_id:&lt;/b&gt;&amp;nbsp;&quot;5434589524523490523452&quot;" style="text;html=1;strokeColor=none;fillColor=none;align=center;verticalAlign=middle;whiteSpace=wrap;rounded=0;fontSize=15;" parent="1" vertex="1">
          <mxGeometry x="-107.5" y="2360" width="250" height="30" as="geometry" />
        </mxCell>
        <mxCell id="RLvVYlyMcEg82NRf-uoO-102" value="" style="curved=1;endArrow=classic;html=1;rounded=0;labelBackgroundColor=#808080;fontSize=15;fillColor=#CCCCCC;" parent="1" edge="1">
          <mxGeometry width="50" height="50" relative="1" as="geometry">
            <mxPoint x="80" y="2110" as="sourcePoint" />
            <mxPoint x="-410" y="2500" as="targetPoint" />
            <Array as="points">
              <mxPoint x="-30" y="2170" />
              <mxPoint x="-80" y="2120" />
            </Array>
          </mxGeometry>
        </mxCell>
        <mxCell id="RLvVYlyMcEg82NRf-uoO-103" value="task_id: &quot;&lt;span style=&quot;text-align: center;&quot;&gt;5434589524523490523452&quot;&lt;/span&gt;&lt;br&gt;state: success&lt;br&gt;elapsed: 1233&lt;br&gt;input_count: 20000,&lt;br&gt;text_filtered: 2,&lt;br&gt;existed: 2344,&lt;br&gt;created: 17654&lt;br&gt;create_time: &#39;2022-12-12T00:00:00+8:00&#39;&lt;br&gt;start_time: &#39;2022-12-12T00:03:00+8:00&#39;&amp;nbsp;&lt;br&gt;finished_time: &#39;2022-12-12T00:08:23+8:00&#39;&lt;br&gt;validation: {&lt;br&gt;&lt;span style=&quot;white-space: pre;&quot;&gt; &lt;/span&gt;&#39;unique_validation&#39;: {&lt;br&gt;&lt;span style=&quot;white-space: pre;&quot;&gt; &lt;/span&gt;&lt;span style=&quot;white-space: pre;&quot;&gt; &lt;/span&gt;&#39;state&#39;: &#39;passed&#39;&lt;br&gt;&lt;span style=&quot;white-space: pre;&quot;&gt; &lt;/span&gt;},&lt;br&gt;&lt;span style=&quot;white-space: pre;&quot;&gt; &lt;/span&gt;&#39;fake_validation&#39;: {&lt;br&gt;&lt;span style=&quot;white-space: pre;&quot;&gt; &lt;/span&gt;&lt;span style=&quot;white-space: pre;&quot;&gt; &lt;/span&gt;&#39;state&#39;: &#39;failed&#39;,&lt;br&gt;&lt;span style=&quot;white-space: pre;&quot;&gt; &lt;/span&gt;&lt;span style=&quot;white-space: pre;&quot;&gt; &lt;/span&gt;&#39;message&#39;: &#39;validation failed, bla bla bla&#39;&lt;br&gt;&lt;span style=&quot;white-space: pre;&quot;&gt; &lt;/span&gt;}&lt;br&gt;}" style="text;html=1;strokeColor=none;fillColor=none;align=left;verticalAlign=middle;whiteSpace=wrap;rounded=0;fontSize=15;" parent="1" vertex="1">
          <mxGeometry x="800" y="2420" width="490" height="360" as="geometry" />
        </mxCell>
      </root>
    </mxGraphModel>
  </diagram>
  <diagram id="pJ39FbHkoec8fcLi71q1" name="数据存储">
    <mxGraphModel dx="1318" dy="1072" grid="1" gridSize="10" guides="1" tooltips="1" connect="1" arrows="1" fold="1" page="1" pageScale="1" pageWidth="850" pageHeight="1100" math="0" shadow="0">
      <root>
        <mxCell id="0" />
        <mxCell id="1" parent="0" />
        <mxCell id="LBD2sJHBDIkf4eG3avMv-1" value="用户" style="shape=umlActor;verticalLabelPosition=bottom;verticalAlign=top;html=1;outlineConnect=0;" parent="1" vertex="1">
          <mxGeometry x="315" y="60" width="30" height="60" as="geometry" />
        </mxCell>
        <mxCell id="LBD2sJHBDIkf4eG3avMv-24" style="edgeStyle=orthogonalEdgeStyle;rounded=0;orthogonalLoop=1;jettySize=auto;html=1;entryX=0.5;entryY=0;entryDx=0;entryDy=0;fontSize=11;strokeColor=#009900;" parent="1" source="LBD2sJHBDIkf4eG3avMv-3" target="LBD2sJHBDIkf4eG3avMv-14" edge="1">
          <mxGeometry relative="1" as="geometry" />
        </mxCell>
        <mxCell id="LBD2sJHBDIkf4eG3avMv-25" style="edgeStyle=orthogonalEdgeStyle;rounded=0;orthogonalLoop=1;jettySize=auto;html=1;entryX=0.5;entryY=0;entryDx=0;entryDy=0;fontSize=11;strokeColor=#CC6600;" parent="1" source="LBD2sJHBDIkf4eG3avMv-3" target="LBD2sJHBDIkf4eG3avMv-18" edge="1">
          <mxGeometry relative="1" as="geometry" />
        </mxCell>
        <mxCell id="LBD2sJHBDIkf4eG3avMv-26" style="edgeStyle=orthogonalEdgeStyle;rounded=0;orthogonalLoop=1;jettySize=auto;html=1;entryX=0.5;entryY=0;entryDx=0;entryDy=0;fontSize=11;strokeColor=#009900;" parent="1" source="LBD2sJHBDIkf4eG3avMv-3" target="LBD2sJHBDIkf4eG3avMv-21" edge="1">
          <mxGeometry relative="1" as="geometry" />
        </mxCell>
        <mxCell id="LBD2sJHBDIkf4eG3avMv-3" value="&lt;b&gt;Search管线&lt;/b&gt;" style="rounded=0;whiteSpace=wrap;html=1;" parent="1" vertex="1">
          <mxGeometry x="270" y="230" width="120" height="60" as="geometry" />
        </mxCell>
        <mxCell id="LBD2sJHBDIkf4eG3avMv-6" value="" style="line;strokeWidth=5;fillColor=none;align=left;verticalAlign=middle;spacingTop=-1;spacingLeft=3;spacingRight=3;rotatable=0;labelPosition=right;points=[];portConstraint=eastwest;strokeColor=inherit;" parent="1" vertex="1">
          <mxGeometry x="310" y="160" width="40" height="8" as="geometry" />
        </mxCell>
        <mxCell id="LBD2sJHBDIkf4eG3avMv-8" value="" style="edgeStyle=segmentEdgeStyle;endArrow=classic;html=1;rounded=0;entryX=0.5;entryY=0;entryDx=0;entryDy=0;" parent="1" target="LBD2sJHBDIkf4eG3avMv-3" edge="1">
          <mxGeometry width="50" height="50" relative="1" as="geometry">
            <mxPoint x="330" y="150" as="sourcePoint" />
            <mxPoint x="330" y="240" as="targetPoint" />
          </mxGeometry>
        </mxCell>
        <mxCell id="LBD2sJHBDIkf4eG3avMv-10" value="API" style="text;html=1;strokeColor=none;fillColor=none;align=center;verticalAlign=middle;whiteSpace=wrap;rounded=0;strokeWidth=5;" parent="1" vertex="1">
          <mxGeometry x="265" y="153.5" width="50" height="21" as="geometry" />
        </mxCell>
        <mxCell id="LBD2sJHBDIkf4eG3avMv-11" value="http request" style="text;html=1;strokeColor=none;fillColor=none;align=center;verticalAlign=middle;whiteSpace=wrap;rounded=0;strokeWidth=5;" parent="1" vertex="1">
          <mxGeometry x="330" y="180" width="60" height="30" as="geometry" />
        </mxCell>
        <mxCell id="LBD2sJHBDIkf4eG3avMv-16" value="" style="group" parent="1" vertex="1" connectable="0">
          <mxGeometry x="300" y="400" width="60" height="90" as="geometry" />
        </mxCell>
        <mxCell id="LBD2sJHBDIkf4eG3avMv-14" value="" style="shape=image;verticalLabelPosition=bottom;labelBackgroundColor=default;verticalAlign=top;aspect=fixed;imageAspect=0;image=data:image/png,iVBORw0KGgoAAAANSUhEUgAAAGQAAABkCAYAAABw4pVUAAAMbGlDQ1BJQ0MgUHJvZmlsZQAASImVVwdYU8kWnltSSWiBCEgJvQkivUgJoQUQkCrYCEkgocSYEFRsWBYVXLuIYEVXRRRdXQFZVMReFsXeFwsqyrqoi6KovAkJ6LqvfO9839z575kz/yl35t47AGj18qTSXFQbgDxJviw+PJg1LjWNRXoKyIAJKMAcWPP4cik7Li4aQBns/y7vbgBE2V91UnL9c/y/iq5AKOcDgEyAOEMg5+dB3AwAvoEvleUDQFTqLaflS5W4CGI9GQwQ4jVKnKXCu5Q4Q4WbBmwS4zkQXwaATOPxZFkAaN6DelYBPwvyaH6C2EUiEEsA0BoBcQBfxBNArIx9RF7eFCUuh9gO2kshhvEA74xvOLP+xp8xxM/jZQ1hVV4DQg4Ry6W5vBn/Z2n+t+TlKgZ92MBGE8ki4pX5wxreypkSpcQ0iLskGTGxylpD3CsWqOoOAEoVKSKSVPaoMV/OgfWDTx2gLgJeSBTExhCHSXJjotX6jExxGBdiuFrQ6eJ8biLEBhAvFspDE9Q2W2RT4tW+0LpMGYet1p/lyQb8Kn09UOQksdX8b0RCrpof0ywUJaZATIXYqkCcHAOxJsTO8pyEKLXN6EIRJ2bQRqaIV8ZvBXG8UBIerOLHCjJlYfFq+5I8+WC+2BaRmBujxgfyRYkRqvpgJ/m8gfhhLthloYSdNMgjlI+LHsxFIAwJVeWOPRdKkhLUPL3S/OB41VycKs2NU9vjFsLccKXeAmJ3eUGCei6enA8Xp4ofz5TmxyWq4sQLs3mRcap48BUgGnBACGABBWwZYArIBuLWrvoueKcaCQM8IANZQAic1JrBGSkDIxJ4TQCF4A+IhEA+NC94YFQICqD+85BWdXUCmQOjBQMzcsBTiPNAFMiF94qBWZIhb8ngCdSI/+GdBxsfxpsLm3L83+sHtV81bKiJVmsUgx5ZWoOWxFBiCDGCGEa0x43wANwPj4bXINhccW/cZzCPr/aEp4Q2wiPCdUI74fZk8XzZd1GOAe2QP0xdi4xva4HbQE4PPBj3h+yQGWfiRsAJd4d+2Hgg9OwBtRx13MqqsL7j/lsG3zwNtR3FhYJShlGCKHbfz9R00PQYYlHW+tv6qGLNGKo3Z2jke/+cb6ovgH3U95bYYuwgdgY7jp3DmrB6wMKOYQ3YReyIEg+tricDq2vQW/xAPDmQR/wPfzy1T2Ul5S41Lp0un1Rj+cLp+cqNx5kinSETZ4nyWWz4dRCyuBK+8wiWq4urKwDKb43q9fWWOfANQZjnv+oWmAPgP6O/v7/pqy4KvnMPHoHb/85XnW0HfE2cB+DsOr5CVqDS4coLAb4ltOBOMwSmwBLYwXxcgSfwA0EgFESCWJAIUsEkWGURXOcyMA3MAvNAMSgFK8BaUAE2g21gF9gLDoB60ASOg9PgArgMroO7cPV0gJegG7wDfQiCkBA6wkAMETPEGnFEXBFvJAAJRaKReCQVSUeyEAmiQGYhC5BSZBVSgWxFqpGfkcPIceQc0obcRh4incgb5COKoTRUDzVBbdCRqDfKRqPQRHQimoVORQvRhegytBytQvegdehx9AJ6HW1HX6I9GMA0MCZmjjlh3hgHi8XSsExMhs3BSrAyrAqrxRrhc76KtWNd2AeciDNwFu4EV3AEnoTz8an4HHwpXoHvwuvwk/hV/CHejX8h0AnGBEeCL4FLGEfIIkwjFBPKCDsIhwin4F7qILwjEolMoi3RC+7FVGI2cSZxKXEjcR+xmdhGfEzsIZFIhiRHkj8plsQj5ZOKSetJe0jHSFdIHaResgbZjOxKDiOnkSXk+eQy8m7yUfIV8jNyH0WbYk3xpcRSBJQZlOWU7ZRGyiVKB6WPqkO1pfpTE6nZ1HnUcmot9RT1HvWthoaGhYaPxlgNsUaRRrnGfo2zGg81PtB0aQ40Dm0CTUFbRttJa6bdpr2l0+k29CB6Gj2fvoxeTT9Bf0Dv1WRoOmtyNQWaczUrNes0r2i+0qJoWWuxtSZpFWqVaR3UuqTVpU3RttHmaPO052hXah/Wvqndo8PQGaUTq5Ons1Rnt845nee6JF0b3VBdge5C3W26J3QfMzCGJYPD4DMWMLYzTjE69Ih6tnpcvWy9Ur29eq163fq6+u76yfrT9Sv1j+i3MzGmDZPLzGUuZx5g3mB+HGYyjD1MOGzJsNphV4a9NxhuEGQgNCgx2Gdw3eCjIcsw1DDHcKVhveF9I9zIwWis0TSjTUanjLqG6w33G84fXjL8wPA7xqixg3G88UzjbcYXjXtMTE3CTaQm601OmHSZMk2DTLNN15geNe00Y5gFmInN1pgdM3vB0mexWbmsctZJVre5sXmEucJ8q3mreZ+FrUWSxXyLfRb3LamW3paZlmssWyy7rcysxljNsqqxumNNsfa2Flmvsz5j/d7G1ibFZpFNvc1zWwNbrm2hbY3tPTu6XaDdVLsqu2v2RHtv+xz7jfaXHVAHDweRQ6XDJUfU0dNR7LjRsW0EYYTPCMmIqhE3nWhObKcCpxqnh85M52jn+c71zq9GWo1MG7ly5JmRX1w8XHJdtrvcHaU7KnLU/FGNo964OrjyXStdr7nR3cLc5ro1uL12d3QXum9yv+XB8BjjscijxeOzp5enzLPWs9PLyivda4PXTW897zjvpd5nfQg+wT5zfZp8Pvh6+ub7HvD908/JL8dvt9/z0bajhaO3j37sb+HP89/q3x7ACkgP2BLQHmgeyAusCnwUZBkkCNoR9Ixtz85m72G/CnYJlgUfCn7P8eXM5jSHYCHhISUhraG6oUmhFaEPwizCssJqwrrDPcJnhjdHECKiIlZG3OSacPncam53pFfk7MiTUbSohKiKqEfRDtGy6MYx6JjIMavH3IuxjpHE1MeCWG7s6tj7cbZxU+N+HUscGze2cuzT+FHxs+LPJDASJifsTniXGJy4PPFukl2SIqklWSt5QnJ18vuUkJRVKe3jRo6bPe5CqlGqOLUhjZSWnLYjrWd86Pi14zsmeEwonnBjou3E6RPPTTKalDvpyGStybzJB9MJ6Snpu9M/8WJ5VbyeDG7GhoxuPoe/jv9SECRYI+gU+gtXCZ9l+meuynye5Z+1OqtTFCgqE3WJOeIK8evsiOzN2e9zYnN25vTnpuTuyyPnpecdluhKciQnp5hOmT6lTeooLZa2T/WdunZqtyxKtkOOyCfKG/L14E/9RYWd4gfFw4KAgsqC3mnJ0w5O15kumX5xhsOMJTOeFYYV/jQTn8mf2TLLfNa8WQ9ns2dvnYPMyZjTMtdy7sK5HUXhRbvmUeflzPttvsv8VfP/WpCyoHGhycKihY9/CP+hplizWFZ8c5Hfos2L8cXixa1L3JasX/KlRFByvtSltKz001L+0vM/jvqx/Mf+ZZnLWpd7Lt+0grhCsuLGysCVu1bprCpc9Xj1mNV1a1hrStb8tXby2nNl7mWb11HXKda1l0eXN6y3Wr9i/acKUcX1yuDKfRuMNyzZ8H6jYOOVTUGbajebbC7d/HGLeMutreFb66psqsq2EbcVbHu6PXn7mZ+8f6reYbSjdMfnnZKd7bvid52s9qqu3m28e3kNWqOo6dwzYc/lvSF7G2qdarfuY+4r3Q/2K/a/+Dn95xsHog60HPQ+WPuL9S8bDjEOldQhdTPquutF9e0NqQ1thyMPtzT6NR761fnXnU3mTZVH9I8sP0o9uvBo/7HCYz3N0uau41nHH7dMbrl7YtyJayfHnmw9FXXq7Omw0yfOsM8cO+t/tumc77nD573P11/wvFB30ePiod88fjvU6tlad8nrUsNln8uNbaPbjl4JvHL8asjV09e41y5cj7nediPpxq2bE2623xLcen479/brOwV3+u4W3SPcK7mvfb/sgfGDqt/tf9/X7tl+5GHIw4uPEh7dfcx//PKJ/MmnjoVP6U/Lnpk9q37u+rypM6zz8ovxLzpeSl/2dRX/ofPHhld2r375M+jPi93jujtey173v1n61vDtzr/c/2rpiet58C7vXd/7kl7D3l0fvD+c+Zjy8VnftE+kT+Wf7T83fon6cq8/r79fypPxBn4FMNjQzEwA3uwEgJ4KAAP+Q1DHq86CA4Kozq8DCPwnrDovDognALWwU/7Gc5oB2A+bTRHkhr3yFz4xCKBubkNNLfJMN1cVFw2ehAi9/f1vTQAgNQLwWdbf37exv//zdhjsbQCap6rOoEohwjPDliAlum4gKALfiep8+k2O3/dAGYE7+L7/F+xvkPNBMlu4AAAAOGVYSWZNTQAqAAAACAABh2kABAAAAAEAAAAaAAAAAAACoAIABAAAAAEAAABkoAMABAAAAAEAAABkAAAAAAxz/HsAAAtkSURBVHgB7V17bBTHGf9m9+7s8wO/DSY8DDG2wQ1EmEcQJCo0BWPLMorBUWugUYushEQRUSWUVglYalMh9Y+QqirQJEWlMUkhCsHGNk6gJRGPBkcROHXBIBVDkwA2Lz/uzr693em3SQ9drPPdvmZu1exIp33MfN983++389iZ2TkAJzgIOAg4CDgIOAg4CDgIOAg4CDgIOAjwRYDwzc58bpQCgU+LZwCIpaDAZAA6BQjJx6MIQDIxluD9IRAgCFTpB0r6MdcrIIpdZEH3NfMWsNVge0Jod1ka+KVHgQorEIql+Pse/tINwULgLlDoQsq68HgCkjwdZF6Xz5AuRkK2JISeLssGd2gNPum1+PQ/jr57GPk/guQcR93NWMCayaLuG4zy0azWVoTQf5SWY1XTgNavx1+KZi+sSaigmjYgdAdZ2HPKGpX6tdiCENo5+4dYGrYhGMv0u8BE4gy2STthYc+7RG2ROIaEEhJqK94oZAjPETcs5Oiznqw+w4fkeZ4lJiGE0KMPFoUk4X3FB2XEBeDKF4AkJ8QULeRQTLQfXHQrmd/zlRYBM2kEM8JGZKX24t8EB4UelQxVnoYApOsKKD7Vb1sG9UmpB4n00E9mb2JtIbfHkr5XmiOJyikaoCVRnUJLXLkCCOncTIpqhoabTZAqPk3Kuoc1pNWdhIv3UnvpEhqQj9Fg/J6TmCOAmMHFLN1gRQj0gELryCM9XRH3LDllXmXJHaUNdFg+qYUM1SP5NlZfg1w7NkaALAGBnKFnSyqMCMeSYUqI1FrcGLon76Eyvl3oCKFbFJRh27YpYU/wPYkcpp2lteEbVhx1AaUnQyRjuzJEt+MQhaEQ6seSEjAobChHQ0Ie9O+vtLPkp4akowgxIURqK3kZyWiMkp/2W8hFqE/BXpjtSRFxAPMNerb0Ke3OjZ/S8tYzdLR4gzxI/4zvt5boJkkA7snqQO74TtgkRgIQVpNF/1LHxgwHS90Mts5aTH1wGsmwtOSJmdjzyrbUVMOAxRG8g1XYErL44qU46caNtgw4erIkHYLkuNVkqJbLA1h1jYzrg50isrEkH/l6tNqgVZYRIt2mJ+koTTVoR2wxtT3BRt5oByG2cstj/w4ZYPilEUeSzAfpSPE27KbONa9pfA1UoiDfU0DMsuwZGj8zYzGD+MRsIYt69hoT/0bKdMVMj84ukIbla9gbsoTcmM7gWLh7Ks7RukybHTMb3ZGUtoFb2EzmX7iqW3aMgGkQpaB8lAsZquE4oS7fxTGvPJsQQuETfGN/iSy6eGwMroYvTRESai+ulAfYVlVjPcP3G6CZ2At2j43hdj2EOTXjPMkurJ4sn1k0RQgdhTe5wRCRkdqWuPJ4tSX0HtJ/EbM/hZ2KE+AfOUaW9zLr8xkmBFeDeEL/Cb0qJGBiSRBwFoUQy0da73NO5QFQ3D5wSX1kwaVb9+87Jw4CDgIOAg4CDgIOAg4CWhHQ/Yb14IYXX4PA4CytGbBO51pS2y3MXmKyJ0QHBQJf4sRm18XV3l7WNsfSr4+Qhj3uGWf2jMLwXX1ysSwwGeeqehZclZtNavmW+Dm8escten/ftYpwX4it6+1qlnCr3k5kqDAqlzu/haYFFw+jjh2SHLhc2h54ygJ9ulToIoTevvEjXdo5JFaunMcJE1xtZ30oIJTundMW2FP+KeU2UKOPkIGb6rcZ9grSKNC+XmY24chZg78/cBAaqS6sjBqkL5PbX+CXSvYL9EvDM6banKFQM2ex/9faEptLpZmQ0i2vFip3bxge+zJnZmxp5avLsRNYEEspeXFOq3+xBapiqtBMSNA3uFSdj7BjoHeYL0pX3Sbo/W9Z+6+ZEGF0xH7tx//QoQN9rHH6Rj+BR8vafUy/ZdFMCAQDRXy81p8LvceJEDRNprBGv4XaJTQTQoOj2drVck4ZUCfx+ASc0bd8gXWk5ZoJASp5IwXtdE6x68sxFLLMSzMhRKG2JQQkZjOq0bDPnnKAHRaaCYlm2Xf0HnXlsVuyp5kQKpCAbQlwJ/M07U7vcsKsSGomBNfd2JYQ4sYl8rwCgV6WWWkmhHiS7rA0xJRur7GtTwzlSelRQ3IahTQTAu5k9uMTGo0em4xkThx7i9k1TmQdZqYcFWsmREnyfs7SEDO6ORLyUffqVMsnYCJ910yIJ23CGVycFilrm3OSNYmHLVQQYCvrjDQTcnHnC71CVgGTmSCzTpLJHKb4KX2luyLlrFlb48lrJuRrRTlT+A0axbM8Il54IPrmEBFJzJ6+f6EzZbtZJVrkdRFCMvPt147gOwjJn67FV4NpyO6UfG8dNBIuuxnomnAi2ZPeQa9WGfSMiZgwYx5uv6jLDa124CQL+cWFSu8+rQJWpNNVQi4ruU2QlmWrWSqhqNwKHCJ14B5ZsDVF9s7iTYZqhO5u06z6n++l/sHSSA8SeS4sW9ctzl5meKEcAfzKhcJ1BRfKibJwvrvaey2R/jh5Owg4CDgIOAg4CDgI/J8goLuXFfa7rLHR4yuauCV8zfPoEsRQWXYOs48+FQoDikwCHjf0HVr1BNfRCcOEqARkvbnz+t3RES4je5GET0ubAPNyua1qxS0z4AJ2jU/jzgUfJfvoBwfr6phN1pkipHD/7oqrAwPtlOOKRtXg5Q9Mg1S3J5IjnufqxjK4cYCyq2V13UmrMzZFiGpM/t7fnesL+HH8gk+YmpYOD+fym5CK4xXOjdCXWirXfRAnneZoXUMn0bSmpIoVyaKLy7C8CyckSjNzopmRqHu4rJR0VLcfbF/TfqjQCiNME9Jb9+yNiampjVYYE09H0YQsSHYxGUiMl3XseEoqZCp3Vbce3BQ7YfxY01VWOIv8va9h1RVgVnWlezzwWMFU3HzHMpPDplt6xJHX173DynPY8AeNKDZdQsKZThKzlmZ4kgzvpBbWE+2oUjA3J9/2ZKi24zcLj494QxOi+aHlnmWEdG3c6Mv2pv/AI4qyloz1pCnKyILsJK6L4fSYF5l2UAClpqX6x4ZHny0jRLXqSv2ms1PS0n4iCqJlcyZZSESxvRrySAIiz0OECmsPV9WZmlW1lBDVun/XP9OEpLxsRU2fJIpQnjcRq6pIv215rr6JbW6ueuJDs9ZZTohq0NX1z7wyLT1jm5kGWJVdmF8AXhe3L5KNYinjp34NRyrXvm5UQaQcbhnNJgwcav248Mm18pA0ukJv/aUWiPlYMvK9qWyMs04r7pVK1h+pWvsXq1Qyrwym79v9s+v+oT8GFVlzaZybkwfT0zOs8pGVngARyLrmitpWKzNgTohqbOHbexb3D/n+5gsFU+IZX5aVCzMzMuMlS2g8gnYpRJUn26rqzlltCBdCVKOnNf0hKyiFPr7h90f9mlc15CF815iebrgLbzU24+nbTyT30801NUPjJTBznxshYSOnv7X7V9eHB38ZVJT7VZjagM/HAcOC1LRwMjseh7HxfqGlat0bLI3jTojqzENNf5rZL/mab/p9ZUk4NrUgbxKo7xs2DRS/vMW/zXNtbV5Zw3yHgoQQEgZ+RtOuDTPTMzenuNyPhO/Z7PgZkvF8c2XtKV52JZSQsJPVbe+twJ2vtuP1Y+F7iT2SM1g97Szv/Oe7jY2NXNb0hv21BSFhY6qOHCgXBKEBr+vxx/slRAW+DUvEDp4lIux7+GgrQsJGrfvwQEZAIjUIzlq8txJ/rL7qVOfGj2NpOExCnhbsOd0M25Cooy0JiQRjZce+VLeSskxQ4Pto7FJsYedivNG3xju4mvk8/gvQ5/iZ9wkkoaOlutofmV+iz21PSDSAqjsOzCAhVwkuNJisEDIVn/BcdMSDwxgT8Ij/mkYHEXh1gqgfR/368EvKKzIlXe2VtV9E0+fccxBwEHAQcBBwEHAQcBBwEHAQcBBwEPguI/BfynUhkwfOCc4AAAAASUVORK5CYII=;" parent="LBD2sJHBDIkf4eG3avMv-16" vertex="1">
          <mxGeometry x="5" width="50" height="50" as="geometry" />
        </mxCell>
        <mxCell id="LBD2sJHBDIkf4eG3avMv-15" value="&lt;font style=&quot;font-size: 11px;&quot;&gt;知识库Elasticsearch&lt;/font&gt;" style="text;html=1;strokeColor=none;fillColor=none;align=center;verticalAlign=middle;whiteSpace=wrap;rounded=0;strokeWidth=1;fontSize=9;" parent="LBD2sJHBDIkf4eG3avMv-16" vertex="1">
          <mxGeometry y="60" width="60" height="30" as="geometry" />
        </mxCell>
        <mxCell id="LBD2sJHBDIkf4eG3avMv-17" value="" style="group" parent="1" vertex="1" connectable="0">
          <mxGeometry x="210" y="400" width="60" height="90" as="geometry" />
        </mxCell>
        <mxCell id="LBD2sJHBDIkf4eG3avMv-18" value="" style="shape=image;verticalLabelPosition=bottom;labelBackgroundColor=default;verticalAlign=top;aspect=fixed;imageAspect=0;image=data:image/png,iVBORw0KGgoAAAANSUhEUgAAAGQAAABkCAYAAABw4pVUAAAMbGlDQ1BJQ0MgUHJvZmlsZQAASImVVwdYU8kWnltSSWiBCEgJvQkivUgJoQUQkCrYCEkgocSYEFRsWBYVXLuIYEVXRRRdXQFZVMReFsXeFwsqyrqoi6KovAkJ6LqvfO9839z575kz/yl35t47AGj18qTSXFQbgDxJviw+PJg1LjWNRXoKyIAJKMAcWPP4cik7Li4aQBns/y7vbgBE2V91UnL9c/y/iq5AKOcDgEyAOEMg5+dB3AwAvoEvleUDQFTqLaflS5W4CGI9GQwQ4jVKnKXCu5Q4Q4WbBmwS4zkQXwaATOPxZFkAaN6DelYBPwvyaH6C2EUiEEsA0BoBcQBfxBNArIx9RF7eFCUuh9gO2kshhvEA74xvOLP+xp8xxM/jZQ1hVV4DQg4Ry6W5vBn/Z2n+t+TlKgZ92MBGE8ki4pX5wxreypkSpcQ0iLskGTGxylpD3CsWqOoOAEoVKSKSVPaoMV/OgfWDTx2gLgJeSBTExhCHSXJjotX6jExxGBdiuFrQ6eJ8biLEBhAvFspDE9Q2W2RT4tW+0LpMGYet1p/lyQb8Kn09UOQksdX8b0RCrpof0ywUJaZATIXYqkCcHAOxJsTO8pyEKLXN6EIRJ2bQRqaIV8ZvBXG8UBIerOLHCjJlYfFq+5I8+WC+2BaRmBujxgfyRYkRqvpgJ/m8gfhhLthloYSdNMgjlI+LHsxFIAwJVeWOPRdKkhLUPL3S/OB41VycKs2NU9vjFsLccKXeAmJ3eUGCei6enA8Xp4ofz5TmxyWq4sQLs3mRcap48BUgGnBACGABBWwZYArIBuLWrvoueKcaCQM8IANZQAic1JrBGSkDIxJ4TQCF4A+IhEA+NC94YFQICqD+85BWdXUCmQOjBQMzcsBTiPNAFMiF94qBWZIhb8ngCdSI/+GdBxsfxpsLm3L83+sHtV81bKiJVmsUgx5ZWoOWxFBiCDGCGEa0x43wANwPj4bXINhccW/cZzCPr/aEp4Q2wiPCdUI74fZk8XzZd1GOAe2QP0xdi4xva4HbQE4PPBj3h+yQGWfiRsAJd4d+2Hgg9OwBtRx13MqqsL7j/lsG3zwNtR3FhYJShlGCKHbfz9R00PQYYlHW+tv6qGLNGKo3Z2jke/+cb6ovgH3U95bYYuwgdgY7jp3DmrB6wMKOYQ3YReyIEg+tricDq2vQW/xAPDmQR/wPfzy1T2Ul5S41Lp0un1Rj+cLp+cqNx5kinSETZ4nyWWz4dRCyuBK+8wiWq4urKwDKb43q9fWWOfANQZjnv+oWmAPgP6O/v7/pqy4KvnMPHoHb/85XnW0HfE2cB+DsOr5CVqDS4coLAb4ltOBOMwSmwBLYwXxcgSfwA0EgFESCWJAIUsEkWGURXOcyMA3MAvNAMSgFK8BaUAE2g21gF9gLDoB60ASOg9PgArgMroO7cPV0gJegG7wDfQiCkBA6wkAMETPEGnFEXBFvJAAJRaKReCQVSUeyEAmiQGYhC5BSZBVSgWxFqpGfkcPIceQc0obcRh4incgb5COKoTRUDzVBbdCRqDfKRqPQRHQimoVORQvRhegytBytQvegdehx9AJ6HW1HX6I9GMA0MCZmjjlh3hgHi8XSsExMhs3BSrAyrAqrxRrhc76KtWNd2AeciDNwFu4EV3AEnoTz8an4HHwpXoHvwuvwk/hV/CHejX8h0AnGBEeCL4FLGEfIIkwjFBPKCDsIhwin4F7qILwjEolMoi3RC+7FVGI2cSZxKXEjcR+xmdhGfEzsIZFIhiRHkj8plsQj5ZOKSetJe0jHSFdIHaResgbZjOxKDiOnkSXk+eQy8m7yUfIV8jNyH0WbYk3xpcRSBJQZlOWU7ZRGyiVKB6WPqkO1pfpTE6nZ1HnUcmot9RT1HvWthoaGhYaPxlgNsUaRRrnGfo2zGg81PtB0aQ40Dm0CTUFbRttJa6bdpr2l0+k29CB6Gj2fvoxeTT9Bf0Dv1WRoOmtyNQWaczUrNes0r2i+0qJoWWuxtSZpFWqVaR3UuqTVpU3RttHmaPO052hXah/Wvqndo8PQGaUTq5Ons1Rnt845nee6JF0b3VBdge5C3W26J3QfMzCGJYPD4DMWMLYzTjE69Ih6tnpcvWy9Ur29eq163fq6+u76yfrT9Sv1j+i3MzGmDZPLzGUuZx5g3mB+HGYyjD1MOGzJsNphV4a9NxhuEGQgNCgx2Gdw3eCjIcsw1DDHcKVhveF9I9zIwWis0TSjTUanjLqG6w33G84fXjL8wPA7xqixg3G88UzjbcYXjXtMTE3CTaQm601OmHSZMk2DTLNN15geNe00Y5gFmInN1pgdM3vB0mexWbmsctZJVre5sXmEucJ8q3mreZ+FrUWSxXyLfRb3LamW3paZlmssWyy7rcysxljNsqqxumNNsfa2Flmvsz5j/d7G1ibFZpFNvc1zWwNbrm2hbY3tPTu6XaDdVLsqu2v2RHtv+xz7jfaXHVAHDweRQ6XDJUfU0dNR7LjRsW0EYYTPCMmIqhE3nWhObKcCpxqnh85M52jn+c71zq9GWo1MG7ly5JmRX1w8XHJdtrvcHaU7KnLU/FGNo964OrjyXStdr7nR3cLc5ro1uL12d3QXum9yv+XB8BjjscijxeOzp5enzLPWs9PLyivda4PXTW897zjvpd5nfQg+wT5zfZp8Pvh6+ub7HvD908/JL8dvt9/z0bajhaO3j37sb+HP89/q3x7ACkgP2BLQHmgeyAusCnwUZBkkCNoR9Ixtz85m72G/CnYJlgUfCn7P8eXM5jSHYCHhISUhraG6oUmhFaEPwizCssJqwrrDPcJnhjdHECKiIlZG3OSacPncam53pFfk7MiTUbSohKiKqEfRDtGy6MYx6JjIMavH3IuxjpHE1MeCWG7s6tj7cbZxU+N+HUscGze2cuzT+FHxs+LPJDASJifsTniXGJy4PPFukl2SIqklWSt5QnJ18vuUkJRVKe3jRo6bPe5CqlGqOLUhjZSWnLYjrWd86Pi14zsmeEwonnBjou3E6RPPTTKalDvpyGStybzJB9MJ6Snpu9M/8WJ5VbyeDG7GhoxuPoe/jv9SECRYI+gU+gtXCZ9l+meuynye5Z+1OqtTFCgqE3WJOeIK8evsiOzN2e9zYnN25vTnpuTuyyPnpecdluhKciQnp5hOmT6lTeooLZa2T/WdunZqtyxKtkOOyCfKG/L14E/9RYWd4gfFw4KAgsqC3mnJ0w5O15kumX5xhsOMJTOeFYYV/jQTn8mf2TLLfNa8WQ9ns2dvnYPMyZjTMtdy7sK5HUXhRbvmUeflzPttvsv8VfP/WpCyoHGhycKihY9/CP+hplizWFZ8c5Hfos2L8cXixa1L3JasX/KlRFByvtSltKz001L+0vM/jvqx/Mf+ZZnLWpd7Lt+0grhCsuLGysCVu1bprCpc9Xj1mNV1a1hrStb8tXby2nNl7mWb11HXKda1l0eXN6y3Wr9i/acKUcX1yuDKfRuMNyzZ8H6jYOOVTUGbajebbC7d/HGLeMutreFb66psqsq2EbcVbHu6PXn7mZ+8f6reYbSjdMfnnZKd7bvid52s9qqu3m28e3kNWqOo6dwzYc/lvSF7G2qdarfuY+4r3Q/2K/a/+Dn95xsHog60HPQ+WPuL9S8bDjEOldQhdTPquutF9e0NqQ1thyMPtzT6NR761fnXnU3mTZVH9I8sP0o9uvBo/7HCYz3N0uau41nHH7dMbrl7YtyJayfHnmw9FXXq7Omw0yfOsM8cO+t/tumc77nD573P11/wvFB30ePiod88fjvU6tlad8nrUsNln8uNbaPbjl4JvHL8asjV09e41y5cj7nediPpxq2bE2623xLcen479/brOwV3+u4W3SPcK7mvfb/sgfGDqt/tf9/X7tl+5GHIw4uPEh7dfcx//PKJ/MmnjoVP6U/Lnpk9q37u+rypM6zz8ovxLzpeSl/2dRX/ofPHhld2r375M+jPi93jujtey173v1n61vDtzr/c/2rpiet58C7vXd/7kl7D3l0fvD+c+Zjy8VnftE+kT+Wf7T83fon6cq8/r79fypPxBn4FMNjQzEwA3uwEgJ4KAAP+Q1DHq86CA4Kozq8DCPwnrDovDognALWwU/7Gc5oB2A+bTRHkhr3yFz4xCKBubkNNLfJMN1cVFw2ehAi9/f1vTQAgNQLwWdbf37exv//zdhjsbQCap6rOoEohwjPDliAlum4gKALfiep8+k2O3/dAGYE7+L7/F+xvkPNBMlu4AAAAOGVYSWZNTQAqAAAACAABh2kABAAAAAEAAAAaAAAAAAACoAIABAAAAAEAAABkoAMABAAAAAEAAABkAAAAAAxz/HsAAAtkSURBVHgB7V17bBTHGf9m9+7s8wO/DSY8DDG2wQ1EmEcQJCo0BWPLMorBUWugUYushEQRUSWUVglYalMh9Y+QqirQJEWlMUkhCsHGNk6gJRGPBkcROHXBIBVDkwA2Lz/uzr693em3SQ9drPPdvmZu1exIp33MfN983++389iZ2TkAJzgIOAg4CDgIOAg4CDgIOAg4CDgIOAjwRYDwzc58bpQCgU+LZwCIpaDAZAA6BQjJx6MIQDIxluD9IRAgCFTpB0r6MdcrIIpdZEH3NfMWsNVge0Jod1ka+KVHgQorEIql+Pse/tINwULgLlDoQsq68HgCkjwdZF6Xz5AuRkK2JISeLssGd2gNPum1+PQ/jr57GPk/guQcR93NWMCayaLuG4zy0azWVoTQf5SWY1XTgNavx1+KZi+sSaigmjYgdAdZ2HPKGpX6tdiCENo5+4dYGrYhGMv0u8BE4gy2STthYc+7RG2ROIaEEhJqK94oZAjPETcs5Oiznqw+w4fkeZ4lJiGE0KMPFoUk4X3FB2XEBeDKF4AkJ8QULeRQTLQfXHQrmd/zlRYBM2kEM8JGZKX24t8EB4UelQxVnoYApOsKKD7Vb1sG9UmpB4n00E9mb2JtIbfHkr5XmiOJyikaoCVRnUJLXLkCCOncTIpqhoabTZAqPk3Kuoc1pNWdhIv3UnvpEhqQj9Fg/J6TmCOAmMHFLN1gRQj0gELryCM9XRH3LDllXmXJHaUNdFg+qYUM1SP5NlZfg1w7NkaALAGBnKFnSyqMCMeSYUqI1FrcGLon76Eyvl3oCKFbFJRh27YpYU/wPYkcpp2lteEbVhx1AaUnQyRjuzJEt+MQhaEQ6seSEjAobChHQ0Ie9O+vtLPkp4akowgxIURqK3kZyWiMkp/2W8hFqE/BXpjtSRFxAPMNerb0Ke3OjZ/S8tYzdLR4gzxI/4zvt5boJkkA7snqQO74TtgkRgIQVpNF/1LHxgwHS90Mts5aTH1wGsmwtOSJmdjzyrbUVMOAxRG8g1XYErL44qU46caNtgw4erIkHYLkuNVkqJbLA1h1jYzrg50isrEkH/l6tNqgVZYRIt2mJ+koTTVoR2wxtT3BRt5oByG2cstj/w4ZYPilEUeSzAfpSPE27KbONa9pfA1UoiDfU0DMsuwZGj8zYzGD+MRsIYt69hoT/0bKdMVMj84ukIbla9gbsoTcmM7gWLh7Ks7RukybHTMb3ZGUtoFb2EzmX7iqW3aMgGkQpaB8lAsZquE4oS7fxTGvPJsQQuETfGN/iSy6eGwMroYvTRESai+ulAfYVlVjPcP3G6CZ2At2j43hdj2EOTXjPMkurJ4sn1k0RQgdhTe5wRCRkdqWuPJ4tSX0HtJ/EbM/hZ2KE+AfOUaW9zLr8xkmBFeDeEL/Cb0qJGBiSRBwFoUQy0da73NO5QFQ3D5wSX1kwaVb9+87Jw4CDgIOAg4CDgIOAg4CWhHQ/Yb14IYXX4PA4CytGbBO51pS2y3MXmKyJ0QHBQJf4sRm18XV3l7WNsfSr4+Qhj3uGWf2jMLwXX1ysSwwGeeqehZclZtNavmW+Dm8escten/ftYpwX4it6+1qlnCr3k5kqDAqlzu/haYFFw+jjh2SHLhc2h54ygJ9ulToIoTevvEjXdo5JFaunMcJE1xtZ30oIJTundMW2FP+KeU2UKOPkIGb6rcZ9grSKNC+XmY24chZg78/cBAaqS6sjBqkL5PbX+CXSvYL9EvDM6banKFQM2ex/9faEptLpZmQ0i2vFip3bxge+zJnZmxp5avLsRNYEEspeXFOq3+xBapiqtBMSNA3uFSdj7BjoHeYL0pX3Sbo/W9Z+6+ZEGF0xH7tx//QoQN9rHH6Rj+BR8vafUy/ZdFMCAQDRXy81p8LvceJEDRNprBGv4XaJTQTQoOj2drVck4ZUCfx+ASc0bd8gXWk5ZoJASp5IwXtdE6x68sxFLLMSzMhRKG2JQQkZjOq0bDPnnKAHRaaCYlm2Xf0HnXlsVuyp5kQKpCAbQlwJ/M07U7vcsKsSGomBNfd2JYQ4sYl8rwCgV6WWWkmhHiS7rA0xJRur7GtTwzlSelRQ3IahTQTAu5k9uMTGo0em4xkThx7i9k1TmQdZqYcFWsmREnyfs7SEDO6ORLyUffqVMsnYCJ910yIJ23CGVycFilrm3OSNYmHLVQQYCvrjDQTcnHnC71CVgGTmSCzTpLJHKb4KX2luyLlrFlb48lrJuRrRTlT+A0axbM8Il54IPrmEBFJzJ6+f6EzZbtZJVrkdRFCMvPt147gOwjJn67FV4NpyO6UfG8dNBIuuxnomnAi2ZPeQa9WGfSMiZgwYx5uv6jLDa124CQL+cWFSu8+rQJWpNNVQi4ruU2QlmWrWSqhqNwKHCJ14B5ZsDVF9s7iTYZqhO5u06z6n++l/sHSSA8SeS4sW9ctzl5meKEcAfzKhcJ1BRfKibJwvrvaey2R/jh5Owg4CDgIOAg4CDgI/J8goLuXFfa7rLHR4yuauCV8zfPoEsRQWXYOs48+FQoDikwCHjf0HVr1BNfRCcOEqARkvbnz+t3RES4je5GET0ubAPNyua1qxS0z4AJ2jU/jzgUfJfvoBwfr6phN1pkipHD/7oqrAwPtlOOKRtXg5Q9Mg1S3J5IjnufqxjK4cYCyq2V13UmrMzZFiGpM/t7fnesL+HH8gk+YmpYOD+fym5CK4xXOjdCXWirXfRAnneZoXUMn0bSmpIoVyaKLy7C8CyckSjNzopmRqHu4rJR0VLcfbF/TfqjQCiNME9Jb9+yNiampjVYYE09H0YQsSHYxGUiMl3XseEoqZCp3Vbce3BQ7YfxY01VWOIv8va9h1RVgVnWlezzwWMFU3HzHMpPDplt6xJHX173DynPY8AeNKDZdQsKZThKzlmZ4kgzvpBbWE+2oUjA3J9/2ZKi24zcLj494QxOi+aHlnmWEdG3c6Mv2pv/AI4qyloz1pCnKyILsJK6L4fSYF5l2UAClpqX6x4ZHny0jRLXqSv2ms1PS0n4iCqJlcyZZSESxvRrySAIiz0OECmsPV9WZmlW1lBDVun/XP9OEpLxsRU2fJIpQnjcRq6pIv215rr6JbW6ueuJDs9ZZTohq0NX1z7wyLT1jm5kGWJVdmF8AXhe3L5KNYinjp34NRyrXvm5UQaQcbhnNJgwcav248Mm18pA0ukJv/aUWiPlYMvK9qWyMs04r7pVK1h+pWvsXq1Qyrwym79v9s+v+oT8GFVlzaZybkwfT0zOs8pGVngARyLrmitpWKzNgTohqbOHbexb3D/n+5gsFU+IZX5aVCzMzMuMlS2g8gnYpRJUn26rqzlltCBdCVKOnNf0hKyiFPr7h90f9mlc15CF815iebrgLbzU24+nbTyT30801NUPjJTBznxshYSOnv7X7V9eHB38ZVJT7VZjagM/HAcOC1LRwMjseh7HxfqGlat0bLI3jTojqzENNf5rZL/mab/p9ZUk4NrUgbxKo7xs2DRS/vMW/zXNtbV5Zw3yHgoQQEgZ+RtOuDTPTMzenuNyPhO/Z7PgZkvF8c2XtKV52JZSQsJPVbe+twJ2vtuP1Y+F7iT2SM1g97Szv/Oe7jY2NXNb0hv21BSFhY6qOHCgXBKEBr+vxx/slRAW+DUvEDp4lIux7+GgrQsJGrfvwQEZAIjUIzlq8txJ/rL7qVOfGj2NpOExCnhbsOd0M25Cooy0JiQRjZce+VLeSskxQ4Pto7FJsYedivNG3xju4mvk8/gvQ5/iZ9wkkoaOlutofmV+iz21PSDSAqjsOzCAhVwkuNJisEDIVn/BcdMSDwxgT8Ij/mkYHEXh1gqgfR/368EvKKzIlXe2VtV9E0+fccxBwEHAQcBBwEHAQcBBwEHAQcBBwEPguI/BfynUhkwfOCc4AAAAASUVORK5CYII=;" parent="LBD2sJHBDIkf4eG3avMv-17" vertex="1">
          <mxGeometry x="5" width="50" height="50" as="geometry" />
        </mxCell>
        <mxCell id="LBD2sJHBDIkf4eG3avMv-19" value="&lt;font style=&quot;font-size: 11px;&quot;&gt;索引名称Elasticsearch&lt;/font&gt;" style="text;html=1;strokeColor=none;fillColor=none;align=center;verticalAlign=middle;whiteSpace=wrap;rounded=0;strokeWidth=1;fontSize=9;" parent="LBD2sJHBDIkf4eG3avMv-17" vertex="1">
          <mxGeometry y="60" width="60" height="30" as="geometry" />
        </mxCell>
        <mxCell id="LBD2sJHBDIkf4eG3avMv-20" value="" style="group" parent="1" vertex="1" connectable="0">
          <mxGeometry x="390" y="400" width="60" height="90" as="geometry" />
        </mxCell>
        <mxCell id="LBD2sJHBDIkf4eG3avMv-21" value="" style="shape=image;verticalLabelPosition=bottom;labelBackgroundColor=default;verticalAlign=top;aspect=fixed;imageAspect=0;image=data:image/png,iVBORw0KGgoAAAANSUhEUgAAAGQAAABkCAYAAABw4pVUAAAMbGlDQ1BJQ0MgUHJvZmlsZQAASImVVwdYU8kWnltSSWiBCEgJvQkivUgJoQUQkCrYCEkgocSYEFRsWBYVXLuIYEVXRRRdXQFZVMReFsXeFwsqyrqoi6KovAkJ6LqvfO9839z575kz/yl35t47AGj18qTSXFQbgDxJviw+PJg1LjWNRXoKyIAJKMAcWPP4cik7Li4aQBns/y7vbgBE2V91UnL9c/y/iq5AKOcDgEyAOEMg5+dB3AwAvoEvleUDQFTqLaflS5W4CGI9GQwQ4jVKnKXCu5Q4Q4WbBmwS4zkQXwaATOPxZFkAaN6DelYBPwvyaH6C2EUiEEsA0BoBcQBfxBNArIx9RF7eFCUuh9gO2kshhvEA74xvOLP+xp8xxM/jZQ1hVV4DQg4Ry6W5vBn/Z2n+t+TlKgZ92MBGE8ki4pX5wxreypkSpcQ0iLskGTGxylpD3CsWqOoOAEoVKSKSVPaoMV/OgfWDTx2gLgJeSBTExhCHSXJjotX6jExxGBdiuFrQ6eJ8biLEBhAvFspDE9Q2W2RT4tW+0LpMGYet1p/lyQb8Kn09UOQksdX8b0RCrpof0ywUJaZATIXYqkCcHAOxJsTO8pyEKLXN6EIRJ2bQRqaIV8ZvBXG8UBIerOLHCjJlYfFq+5I8+WC+2BaRmBujxgfyRYkRqvpgJ/m8gfhhLthloYSdNMgjlI+LHsxFIAwJVeWOPRdKkhLUPL3S/OB41VycKs2NU9vjFsLccKXeAmJ3eUGCei6enA8Xp4ofz5TmxyWq4sQLs3mRcap48BUgGnBACGABBWwZYArIBuLWrvoueKcaCQM8IANZQAic1JrBGSkDIxJ4TQCF4A+IhEA+NC94YFQICqD+85BWdXUCmQOjBQMzcsBTiPNAFMiF94qBWZIhb8ngCdSI/+GdBxsfxpsLm3L83+sHtV81bKiJVmsUgx5ZWoOWxFBiCDGCGEa0x43wANwPj4bXINhccW/cZzCPr/aEp4Q2wiPCdUI74fZk8XzZd1GOAe2QP0xdi4xva4HbQE4PPBj3h+yQGWfiRsAJd4d+2Hgg9OwBtRx13MqqsL7j/lsG3zwNtR3FhYJShlGCKHbfz9R00PQYYlHW+tv6qGLNGKo3Z2jke/+cb6ovgH3U95bYYuwgdgY7jp3DmrB6wMKOYQ3YReyIEg+tricDq2vQW/xAPDmQR/wPfzy1T2Ul5S41Lp0un1Rj+cLp+cqNx5kinSETZ4nyWWz4dRCyuBK+8wiWq4urKwDKb43q9fWWOfANQZjnv+oWmAPgP6O/v7/pqy4KvnMPHoHb/85XnW0HfE2cB+DsOr5CVqDS4coLAb4ltOBOMwSmwBLYwXxcgSfwA0EgFESCWJAIUsEkWGURXOcyMA3MAvNAMSgFK8BaUAE2g21gF9gLDoB60ASOg9PgArgMroO7cPV0gJegG7wDfQiCkBA6wkAMETPEGnFEXBFvJAAJRaKReCQVSUeyEAmiQGYhC5BSZBVSgWxFqpGfkcPIceQc0obcRh4incgb5COKoTRUDzVBbdCRqDfKRqPQRHQimoVORQvRhegytBytQvegdehx9AJ6HW1HX6I9GMA0MCZmjjlh3hgHi8XSsExMhs3BSrAyrAqrxRrhc76KtWNd2AeciDNwFu4EV3AEnoTz8an4HHwpXoHvwuvwk/hV/CHejX8h0AnGBEeCL4FLGEfIIkwjFBPKCDsIhwin4F7qILwjEolMoi3RC+7FVGI2cSZxKXEjcR+xmdhGfEzsIZFIhiRHkj8plsQj5ZOKSetJe0jHSFdIHaResgbZjOxKDiOnkSXk+eQy8m7yUfIV8jNyH0WbYk3xpcRSBJQZlOWU7ZRGyiVKB6WPqkO1pfpTE6nZ1HnUcmot9RT1HvWthoaGhYaPxlgNsUaRRrnGfo2zGg81PtB0aQ40Dm0CTUFbRttJa6bdpr2l0+k29CB6Gj2fvoxeTT9Bf0Dv1WRoOmtyNQWaczUrNes0r2i+0qJoWWuxtSZpFWqVaR3UuqTVpU3RttHmaPO052hXah/Wvqndo8PQGaUTq5Ons1Rnt845nee6JF0b3VBdge5C3W26J3QfMzCGJYPD4DMWMLYzTjE69Ih6tnpcvWy9Ur29eq163fq6+u76yfrT9Sv1j+i3MzGmDZPLzGUuZx5g3mB+HGYyjD1MOGzJsNphV4a9NxhuEGQgNCgx2Gdw3eCjIcsw1DDHcKVhveF9I9zIwWis0TSjTUanjLqG6w33G84fXjL8wPA7xqixg3G88UzjbcYXjXtMTE3CTaQm601OmHSZMk2DTLNN15geNe00Y5gFmInN1pgdM3vB0mexWbmsctZJVre5sXmEucJ8q3mreZ+FrUWSxXyLfRb3LamW3paZlmssWyy7rcysxljNsqqxumNNsfa2Flmvsz5j/d7G1ibFZpFNvc1zWwNbrm2hbY3tPTu6XaDdVLsqu2v2RHtv+xz7jfaXHVAHDweRQ6XDJUfU0dNR7LjRsW0EYYTPCMmIqhE3nWhObKcCpxqnh85M52jn+c71zq9GWo1MG7ly5JmRX1w8XHJdtrvcHaU7KnLU/FGNo964OrjyXStdr7nR3cLc5ro1uL12d3QXum9yv+XB8BjjscijxeOzp5enzLPWs9PLyivda4PXTW897zjvpd5nfQg+wT5zfZp8Pvh6+ub7HvD908/JL8dvt9/z0bajhaO3j37sb+HP89/q3x7ACkgP2BLQHmgeyAusCnwUZBkkCNoR9Ixtz85m72G/CnYJlgUfCn7P8eXM5jSHYCHhISUhraG6oUmhFaEPwizCssJqwrrDPcJnhjdHECKiIlZG3OSacPncam53pFfk7MiTUbSohKiKqEfRDtGy6MYx6JjIMavH3IuxjpHE1MeCWG7s6tj7cbZxU+N+HUscGze2cuzT+FHxs+LPJDASJifsTniXGJy4PPFukl2SIqklWSt5QnJ18vuUkJRVKe3jRo6bPe5CqlGqOLUhjZSWnLYjrWd86Pi14zsmeEwonnBjou3E6RPPTTKalDvpyGStybzJB9MJ6Snpu9M/8WJ5VbyeDG7GhoxuPoe/jv9SECRYI+gU+gtXCZ9l+meuynye5Z+1OqtTFCgqE3WJOeIK8evsiOzN2e9zYnN25vTnpuTuyyPnpecdluhKciQnp5hOmT6lTeooLZa2T/WdunZqtyxKtkOOyCfKG/L14E/9RYWd4gfFw4KAgsqC3mnJ0w5O15kumX5xhsOMJTOeFYYV/jQTn8mf2TLLfNa8WQ9ns2dvnYPMyZjTMtdy7sK5HUXhRbvmUeflzPttvsv8VfP/WpCyoHGhycKihY9/CP+hplizWFZ8c5Hfos2L8cXixa1L3JasX/KlRFByvtSltKz001L+0vM/jvqx/Mf+ZZnLWpd7Lt+0grhCsuLGysCVu1bprCpc9Xj1mNV1a1hrStb8tXby2nNl7mWb11HXKda1l0eXN6y3Wr9i/acKUcX1yuDKfRuMNyzZ8H6jYOOVTUGbajebbC7d/HGLeMutreFb66psqsq2EbcVbHu6PXn7mZ+8f6reYbSjdMfnnZKd7bvid52s9qqu3m28e3kNWqOo6dwzYc/lvSF7G2qdarfuY+4r3Q/2K/a/+Dn95xsHog60HPQ+WPuL9S8bDjEOldQhdTPquutF9e0NqQ1thyMPtzT6NR761fnXnU3mTZVH9I8sP0o9uvBo/7HCYz3N0uau41nHH7dMbrl7YtyJayfHnmw9FXXq7Omw0yfOsM8cO+t/tumc77nD573P11/wvFB30ePiod88fjvU6tlad8nrUsNln8uNbaPbjl4JvHL8asjV09e41y5cj7nediPpxq2bE2623xLcen479/brOwV3+u4W3SPcK7mvfb/sgfGDqt/tf9/X7tl+5GHIw4uPEh7dfcx//PKJ/MmnjoVP6U/Lnpk9q37u+rypM6zz8ovxLzpeSl/2dRX/ofPHhld2r375M+jPi93jujtey173v1n61vDtzr/c/2rpiet58C7vXd/7kl7D3l0fvD+c+Zjy8VnftE+kT+Wf7T83fon6cq8/r79fypPxBn4FMNjQzEwA3uwEgJ4KAAP+Q1DHq86CA4Kozq8DCPwnrDovDognALWwU/7Gc5oB2A+bTRHkhr3yFz4xCKBubkNNLfJMN1cVFw2ehAi9/f1vTQAgNQLwWdbf37exv//zdhjsbQCap6rOoEohwjPDliAlum4gKALfiep8+k2O3/dAGYE7+L7/F+xvkPNBMlu4AAAAOGVYSWZNTQAqAAAACAABh2kABAAAAAEAAAAaAAAAAAACoAIABAAAAAEAAABkoAMABAAAAAEAAABkAAAAAAxz/HsAAAtkSURBVHgB7V17bBTHGf9m9+7s8wO/DSY8DDG2wQ1EmEcQJCo0BWPLMorBUWugUYushEQRUSWUVglYalMh9Y+QqirQJEWlMUkhCsHGNk6gJRGPBkcROHXBIBVDkwA2Lz/uzr693em3SQ9drPPdvmZu1exIp33MfN983++389iZ2TkAJzgIOAg4CDgIOAg4CDgIOAg4CDgIOAjwRYDwzc58bpQCgU+LZwCIpaDAZAA6BQjJx6MIQDIxluD9IRAgCFTpB0r6MdcrIIpdZEH3NfMWsNVge0Jod1ka+KVHgQorEIql+Pse/tINwULgLlDoQsq68HgCkjwdZF6Xz5AuRkK2JISeLssGd2gNPum1+PQ/jr57GPk/guQcR93NWMCayaLuG4zy0azWVoTQf5SWY1XTgNavx1+KZi+sSaigmjYgdAdZ2HPKGpX6tdiCENo5+4dYGrYhGMv0u8BE4gy2STthYc+7RG2ROIaEEhJqK94oZAjPETcs5Oiznqw+w4fkeZ4lJiGE0KMPFoUk4X3FB2XEBeDKF4AkJ8QULeRQTLQfXHQrmd/zlRYBM2kEM8JGZKX24t8EB4UelQxVnoYApOsKKD7Vb1sG9UmpB4n00E9mb2JtIbfHkr5XmiOJyikaoCVRnUJLXLkCCOncTIpqhoabTZAqPk3Kuoc1pNWdhIv3UnvpEhqQj9Fg/J6TmCOAmMHFLN1gRQj0gELryCM9XRH3LDllXmXJHaUNdFg+qYUM1SP5NlZfg1w7NkaALAGBnKFnSyqMCMeSYUqI1FrcGLon76Eyvl3oCKFbFJRh27YpYU/wPYkcpp2lteEbVhx1AaUnQyRjuzJEt+MQhaEQ6seSEjAobChHQ0Ie9O+vtLPkp4akowgxIURqK3kZyWiMkp/2W8hFqE/BXpjtSRFxAPMNerb0Ke3OjZ/S8tYzdLR4gzxI/4zvt5boJkkA7snqQO74TtgkRgIQVpNF/1LHxgwHS90Mts5aTH1wGsmwtOSJmdjzyrbUVMOAxRG8g1XYErL44qU46caNtgw4erIkHYLkuNVkqJbLA1h1jYzrg50isrEkH/l6tNqgVZYRIt2mJ+koTTVoR2wxtT3BRt5oByG2cstj/w4ZYPilEUeSzAfpSPE27KbONa9pfA1UoiDfU0DMsuwZGj8zYzGD+MRsIYt69hoT/0bKdMVMj84ukIbla9gbsoTcmM7gWLh7Ks7RukybHTMb3ZGUtoFb2EzmX7iqW3aMgGkQpaB8lAsZquE4oS7fxTGvPJsQQuETfGN/iSy6eGwMroYvTRESai+ulAfYVlVjPcP3G6CZ2At2j43hdj2EOTXjPMkurJ4sn1k0RQgdhTe5wRCRkdqWuPJ4tSX0HtJ/EbM/hZ2KE+AfOUaW9zLr8xkmBFeDeEL/Cb0qJGBiSRBwFoUQy0da73NO5QFQ3D5wSX1kwaVb9+87Jw4CDgIOAg4CDgIOAg4CWhHQ/Yb14IYXX4PA4CytGbBO51pS2y3MXmKyJ0QHBQJf4sRm18XV3l7WNsfSr4+Qhj3uGWf2jMLwXX1ysSwwGeeqehZclZtNavmW+Dm8escten/ftYpwX4it6+1qlnCr3k5kqDAqlzu/haYFFw+jjh2SHLhc2h54ygJ9ulToIoTevvEjXdo5JFaunMcJE1xtZ30oIJTundMW2FP+KeU2UKOPkIGb6rcZ9grSKNC+XmY24chZg78/cBAaqS6sjBqkL5PbX+CXSvYL9EvDM6banKFQM2ex/9faEptLpZmQ0i2vFip3bxge+zJnZmxp5avLsRNYEEspeXFOq3+xBapiqtBMSNA3uFSdj7BjoHeYL0pX3Sbo/W9Z+6+ZEGF0xH7tx//QoQN9rHH6Rj+BR8vafUy/ZdFMCAQDRXy81p8LvceJEDRNprBGv4XaJTQTQoOj2drVck4ZUCfx+ASc0bd8gXWk5ZoJASp5IwXtdE6x68sxFLLMSzMhRKG2JQQkZjOq0bDPnnKAHRaaCYlm2Xf0HnXlsVuyp5kQKpCAbQlwJ/M07U7vcsKsSGomBNfd2JYQ4sYl8rwCgV6WWWkmhHiS7rA0xJRur7GtTwzlSelRQ3IahTQTAu5k9uMTGo0em4xkThx7i9k1TmQdZqYcFWsmREnyfs7SEDO6ORLyUffqVMsnYCJ910yIJ23CGVycFilrm3OSNYmHLVQQYCvrjDQTcnHnC71CVgGTmSCzTpLJHKb4KX2luyLlrFlb48lrJuRrRTlT+A0axbM8Il54IPrmEBFJzJ6+f6EzZbtZJVrkdRFCMvPt147gOwjJn67FV4NpyO6UfG8dNBIuuxnomnAi2ZPeQa9WGfSMiZgwYx5uv6jLDa124CQL+cWFSu8+rQJWpNNVQi4ruU2QlmWrWSqhqNwKHCJ14B5ZsDVF9s7iTYZqhO5u06z6n++l/sHSSA8SeS4sW9ctzl5meKEcAfzKhcJ1BRfKibJwvrvaey2R/jh5Owg4CDgIOAg4CDgI/J8goLuXFfa7rLHR4yuauCV8zfPoEsRQWXYOs48+FQoDikwCHjf0HVr1BNfRCcOEqARkvbnz+t3RES4je5GET0ubAPNyua1qxS0z4AJ2jU/jzgUfJfvoBwfr6phN1pkipHD/7oqrAwPtlOOKRtXg5Q9Mg1S3J5IjnufqxjK4cYCyq2V13UmrMzZFiGpM/t7fnesL+HH8gk+YmpYOD+fym5CK4xXOjdCXWirXfRAnneZoXUMn0bSmpIoVyaKLy7C8CyckSjNzopmRqHu4rJR0VLcfbF/TfqjQCiNME9Jb9+yNiampjVYYE09H0YQsSHYxGUiMl3XseEoqZCp3Vbce3BQ7YfxY01VWOIv8va9h1RVgVnWlezzwWMFU3HzHMpPDplt6xJHX173DynPY8AeNKDZdQsKZThKzlmZ4kgzvpBbWE+2oUjA3J9/2ZKi24zcLj494QxOi+aHlnmWEdG3c6Mv2pv/AI4qyloz1pCnKyILsJK6L4fSYF5l2UAClpqX6x4ZHny0jRLXqSv2ms1PS0n4iCqJlcyZZSESxvRrySAIiz0OECmsPV9WZmlW1lBDVun/XP9OEpLxsRU2fJIpQnjcRq6pIv215rr6JbW6ueuJDs9ZZTohq0NX1z7wyLT1jm5kGWJVdmF8AXhe3L5KNYinjp34NRyrXvm5UQaQcbhnNJgwcav248Mm18pA0ukJv/aUWiPlYMvK9qWyMs04r7pVK1h+pWvsXq1Qyrwym79v9s+v+oT8GFVlzaZybkwfT0zOs8pGVngARyLrmitpWKzNgTohqbOHbexb3D/n+5gsFU+IZX5aVCzMzMuMlS2g8gnYpRJUn26rqzlltCBdCVKOnNf0hKyiFPr7h90f9mlc15CF815iebrgLbzU24+nbTyT30801NUPjJTBznxshYSOnv7X7V9eHB38ZVJT7VZjagM/HAcOC1LRwMjseh7HxfqGlat0bLI3jTojqzENNf5rZL/mab/p9ZUk4NrUgbxKo7xs2DRS/vMW/zXNtbV5Zw3yHgoQQEgZ+RtOuDTPTMzenuNyPhO/Z7PgZkvF8c2XtKV52JZSQsJPVbe+twJ2vtuP1Y+F7iT2SM1g97Szv/Oe7jY2NXNb0hv21BSFhY6qOHCgXBKEBr+vxx/slRAW+DUvEDp4lIux7+GgrQsJGrfvwQEZAIjUIzlq8txJ/rL7qVOfGj2NpOExCnhbsOd0M25Cooy0JiQRjZce+VLeSskxQ4Pto7FJsYedivNG3xju4mvk8/gvQ5/iZ9wkkoaOlutofmV+iz21PSDSAqjsOzCAhVwkuNJisEDIVn/BcdMSDwxgT8Ij/mkYHEXh1gqgfR/368EvKKzIlXe2VtV9E0+fccxBwEHAQcBBwEHAQcBBwEHAQcBBwEPguI/BfynUhkwfOCc4AAAAASUVORK5CYII=;" parent="LBD2sJHBDIkf4eG3avMv-20" vertex="1">
          <mxGeometry x="5" width="50" height="50" as="geometry" />
        </mxCell>
        <mxCell id="LBD2sJHBDIkf4eG3avMv-22" value="&lt;font style=&quot;font-size: 11px;&quot;&gt;目录外Elasticsearch&lt;/font&gt;" style="text;html=1;strokeColor=none;fillColor=none;align=center;verticalAlign=middle;whiteSpace=wrap;rounded=0;strokeWidth=1;fontSize=9;" parent="LBD2sJHBDIkf4eG3avMv-20" vertex="1">
          <mxGeometry y="60" width="60" height="30" as="geometry" />
        </mxCell>
        <mxCell id="LBD2sJHBDIkf4eG3avMv-30" value="" style="group" parent="1" vertex="1" connectable="0">
          <mxGeometry x="290" y="610" width="80" height="70" as="geometry" />
        </mxCell>
        <mxCell id="LBD2sJHBDIkf4eG3avMv-28" value="" style="shape=image;verticalLabelPosition=bottom;labelBackgroundColor=default;verticalAlign=top;aspect=fixed;imageAspect=0;image=https://neo4j.com/wp-content/themes/neo4jweb/v2-templates/brand/assets/logo-section-5.svg;" parent="LBD2sJHBDIkf4eG3avMv-30" vertex="1">
          <mxGeometry x="20.08000000000004" width="39.84" height="40" as="geometry" />
        </mxCell>
        <mxCell id="LBD2sJHBDIkf4eG3avMv-29" value="Neo4j主存储" style="text;html=1;strokeColor=none;fillColor=none;align=center;verticalAlign=middle;whiteSpace=wrap;rounded=0;strokeWidth=1;fontSize=11;" parent="LBD2sJHBDIkf4eG3avMv-30" vertex="1">
          <mxGeometry y="40" width="80" height="30" as="geometry" />
        </mxCell>
        <mxCell id="LBD2sJHBDIkf4eG3avMv-32" value="规则查询" style="text;html=1;strokeColor=none;fillColor=none;align=center;verticalAlign=middle;whiteSpace=wrap;rounded=0;strokeWidth=1;fontSize=11;fontColor=#CC6600;" parent="1" vertex="1">
          <mxGeometry x="220" y="300" width="20" height="90" as="geometry" />
        </mxCell>
        <mxCell id="LBD2sJHBDIkf4eG3avMv-33" value="目录内查询" style="text;html=1;strokeColor=none;fillColor=none;align=center;verticalAlign=middle;whiteSpace=wrap;rounded=0;strokeWidth=1;fontSize=11;fontColor=#009900;" parent="1" vertex="1">
          <mxGeometry x="310" y="300" width="20" height="90" as="geometry" />
        </mxCell>
        <mxCell id="LBD2sJHBDIkf4eG3avMv-34" value="目录外查询" style="text;html=1;strokeColor=none;fillColor=none;align=center;verticalAlign=middle;whiteSpace=wrap;rounded=0;strokeWidth=1;fontSize=11;fontColor=#009900;" parent="1" vertex="1">
          <mxGeometry x="425" y="300" width="20" height="90" as="geometry" />
        </mxCell>
        <mxCell id="LBD2sJHBDIkf4eG3avMv-36" style="edgeStyle=orthogonalEdgeStyle;rounded=0;orthogonalLoop=1;jettySize=auto;html=1;fontSize=11;dashed=1;" parent="1" source="LBD2sJHBDIkf4eG3avMv-35" target="LBD2sJHBDIkf4eG3avMv-29" edge="1">
          <mxGeometry relative="1" as="geometry" />
        </mxCell>
        <mxCell id="LBD2sJHBDIkf4eG3avMv-35" value="&lt;b&gt;Update管线&lt;/b&gt;" style="rounded=0;whiteSpace=wrap;html=1;" parent="1" vertex="1">
          <mxGeometry x="270" y="730" width="120" height="60" as="geometry" />
        </mxCell>
        <mxCell id="LBD2sJHBDIkf4eG3avMv-38" style="edgeStyle=orthogonalEdgeStyle;rounded=0;orthogonalLoop=1;jettySize=auto;html=1;fontSize=11;entryX=0.5;entryY=0;entryDx=0;entryDy=0;dashed=1;fontColor=#009900;strokeColor=#009900;" parent="1" source="LBD2sJHBDIkf4eG3avMv-15" target="LBD2sJHBDIkf4eG3avMv-28" edge="1">
          <mxGeometry relative="1" as="geometry">
            <mxPoint x="330" y="560" as="targetPoint" />
          </mxGeometry>
        </mxCell>
        <mxCell id="LBD2sJHBDIkf4eG3avMv-39" value="目录内同步" style="text;html=1;strokeColor=none;fillColor=none;align=center;verticalAlign=middle;whiteSpace=wrap;rounded=0;strokeWidth=1;fontSize=11;fontColor=#009900;" parent="1" vertex="1">
          <mxGeometry x="310" y="505" width="20" height="90" as="geometry" />
        </mxCell>
        <mxCell id="LBD2sJHBDIkf4eG3avMv-40" style="edgeStyle=orthogonalEdgeStyle;rounded=0;orthogonalLoop=1;jettySize=auto;html=1;entryX=0.5;entryY=1;entryDx=0;entryDy=0;fontSize=11;strokeColor=#CC6600;dashed=1;fontColor=#CC6600;" parent="1" source="LBD2sJHBDIkf4eG3avMv-28" target="LBD2sJHBDIkf4eG3avMv-19" edge="1">
          <mxGeometry relative="1" as="geometry" />
        </mxCell>
        <mxCell id="LBD2sJHBDIkf4eG3avMv-41" style="edgeStyle=orthogonalEdgeStyle;rounded=0;orthogonalLoop=1;jettySize=auto;html=1;entryX=0.5;entryY=1;entryDx=0;entryDy=0;fontSize=11;dashed=1;fontColor=#009900;strokeColor=#009900;" parent="1" source="LBD2sJHBDIkf4eG3avMv-28" target="LBD2sJHBDIkf4eG3avMv-22" edge="1">
          <mxGeometry relative="1" as="geometry" />
        </mxCell>
        <mxCell id="LBD2sJHBDIkf4eG3avMv-42" value="目录外同步" style="text;html=1;strokeColor=none;fillColor=none;align=center;verticalAlign=middle;whiteSpace=wrap;rounded=0;strokeWidth=1;fontSize=11;fontColor=#009900;" parent="1" vertex="1">
          <mxGeometry x="425" y="505" width="20" height="90" as="geometry" />
        </mxCell>
        <mxCell id="LBD2sJHBDIkf4eG3avMv-43" value="索引名称同步" style="text;html=1;strokeColor=none;fillColor=none;align=center;verticalAlign=middle;whiteSpace=wrap;rounded=0;strokeWidth=1;fontSize=11;fontColor=#CC6600;" parent="1" vertex="1">
          <mxGeometry x="220" y="505" width="20" height="90" as="geometry" />
        </mxCell>
        <mxCell id="LBD2sJHBDIkf4eG3avMv-44" value="主数据更新" style="text;html=1;strokeColor=none;fillColor=none;align=center;verticalAlign=middle;whiteSpace=wrap;rounded=0;strokeWidth=1;fontSize=11;" parent="1" vertex="1">
          <mxGeometry x="260" y="690" width="70" height="30" as="geometry" />
        </mxCell>
        <mxCell id="LBD2sJHBDIkf4eG3avMv-46" style="edgeStyle=orthogonalEdgeStyle;rounded=0;orthogonalLoop=1;jettySize=auto;html=1;entryX=0.5;entryY=1;entryDx=0;entryDy=0;dashed=1;strokeColor=default;fontSize=11;" parent="1" source="LBD2sJHBDIkf4eG3avMv-45" target="LBD2sJHBDIkf4eG3avMv-35" edge="1">
          <mxGeometry relative="1" as="geometry" />
        </mxCell>
        <mxCell id="LBD2sJHBDIkf4eG3avMv-45" value="数据文件" style="whiteSpace=wrap;html=1;shape=mxgraph.basic.document;strokeWidth=1;fontSize=11;" parent="1" vertex="1">
          <mxGeometry x="302.5" y="900" width="55" height="77" as="geometry" />
        </mxCell>
        <mxCell id="LBD2sJHBDIkf4eG3avMv-47" value="" style="line;strokeWidth=5;fillColor=none;align=left;verticalAlign=middle;spacingTop=-1;spacingLeft=3;spacingRight=3;rotatable=0;labelPosition=right;points=[];portConstraint=eastwest;strokeColor=inherit;" parent="1" vertex="1">
          <mxGeometry x="310" y="856.5" width="40" height="8" as="geometry" />
        </mxCell>
        <mxCell id="LBD2sJHBDIkf4eG3avMv-48" value="API" style="text;html=1;strokeColor=none;fillColor=none;align=center;verticalAlign=middle;whiteSpace=wrap;rounded=0;strokeWidth=5;" parent="1" vertex="1">
          <mxGeometry x="265" y="850" width="50" height="21" as="geometry" />
        </mxCell>
        <mxCell id="LBD2sJHBDIkf4eG3avMv-54" value="&lt;h1&gt;三目录Search管线&lt;/h1&gt;&lt;p&gt;请求数据 ==&amp;gt; 知识库Elasticsearch + 目录外Elasticsearch ==&amp;gt; 响应数据&lt;/p&gt;&lt;h1&gt;三目录Update管线（目录内）&lt;/h1&gt;&lt;div&gt;请求数据 ==&amp;gt; 知识库Elasticsearch ==&amp;gt; Neo4j主存储 ==&amp;gt; 响应数据&lt;/div&gt;&lt;div&gt;&lt;h1&gt;三目录Update管线（目录外）&lt;/h1&gt;&lt;div&gt;请求数据 ==&amp;gt; Neo4j主存储 ==&amp;gt; 目录外Elasticseach ==&amp;gt; 响应数据&amp;nbsp;&lt;/div&gt;&lt;/div&gt;" style="text;html=1;strokeColor=none;fillColor=none;spacing=5;spacingTop=-20;whiteSpace=wrap;overflow=hidden;rounded=0;labelBackgroundColor=default;strokeWidth=1;fontSize=11;fontColor=#009900;" parent="1" vertex="1">
          <mxGeometry x="490" y="250" width="410" height="220" as="geometry" />
        </mxCell>
        <mxCell id="LBD2sJHBDIkf4eG3avMv-55" value="&lt;h1&gt;&lt;font color=&quot;#cc6600&quot;&gt;规则Search管线&lt;/font&gt;&lt;/h1&gt;&lt;p&gt;&lt;font color=&quot;#cc6600&quot;&gt;请求数据 ==&amp;gt; 索引名称Elasticsearch ==&amp;gt; Neo4j主存储 ==&amp;gt; 响应数据&lt;/font&gt;&lt;/p&gt;&lt;h1&gt;&lt;font color=&quot;#cc6600&quot;&gt;规则Update管线&lt;/font&gt;&lt;/h1&gt;&lt;div&gt;&lt;font color=&quot;#cc6600&quot;&gt;请求数据 ==&amp;gt; Neo4j主存储 ==&amp;gt; 索引名称Elasticsearch ==&amp;gt; 响应数据&lt;/font&gt;&lt;/div&gt;" style="text;html=1;strokeColor=none;fillColor=none;spacing=5;spacingTop=-20;whiteSpace=wrap;overflow=hidden;rounded=0;labelBackgroundColor=default;strokeWidth=1;fontSize=11;fontColor=#009900;" parent="1" vertex="1">
          <mxGeometry x="490" y="480" width="390" height="150" as="geometry" />
        </mxCell>
        <mxCell id="LBD2sJHBDIkf4eG3avMv-58" value="http request" style="text;html=1;strokeColor=none;fillColor=none;align=center;verticalAlign=middle;whiteSpace=wrap;rounded=0;strokeWidth=5;" parent="1" vertex="1">
          <mxGeometry x="330" y="810" width="60" height="30" as="geometry" />
        </mxCell>
      </root>
    </mxGraphModel>
  </diagram>
</mxfile>
